<svg xmlns="http://www.w3.org/2000/svg" viewBox="0 0 160 120">
  <defs>
    <linearGradient id="sky2" x1="0" x2="0" y1="0" y2="1">
      <stop offset="0%" stop-color="#4e2e33"/>
      <stop offset="100%" stop-color="#140c0f"/>
    </linearGradient>
    <linearGradient id="roof2" x1="0" x2="0" y1="0" y2="1">
      <stop offset="0%" stop-color="#c69d68"/>
      <stop offset="100%" stop-color="#704726"/>
    </linearGradient>
  </defs>
  <rect width="160" height="120" rx="22" fill="url(#sky2)" opacity="0.02"/>
  <ellipse cx="82" cy="100" rx="58" ry="12" fill="#090506" opacity="0.36"/>
  <g transform="translate(16 16)">
    <rect x="0" y="38" width="24" height="40" rx="3" fill="#311d1d"/>
    <rect x="18" y="24" width="20" height="54" rx="3" fill="#47282a"/>
    <rect x="34" y="12" width="28" height="66" rx="3" fill="#60363a"/>
    <rect x="58" y="32" width="22" height="46" rx="3" fill="#3c2022"/>
    <rect x="76" y="20" width="20" height="58" rx="3" fill="#4f2e31"/>
    <rect x="92" y="4" width="26" height="74" rx="3" fill="#6a4043"/>
    <rect x="114" y="28" width="18" height="50" rx="3" fill="#3a2224"/>
    <path d="M44 12h8l6-10h-8z" fill="url(#roof2)"/>
    <rect x="101" y="-6" width="4" height="16" rx="2" fill="#271618"/>
    <g fill="#ffd68f">
      <rect x="5" y="48" width="5" height="7" rx="1"/>
      <rect x="13" y="48" width="5" height="7" rx="1"/>
      <rect x="23" y="33" width="5" height="7" rx="1"/>
      <rect x="40" y="21" width="6" height="8" rx="1"/>
      <rect x="50" y="21" width="6" height="8" rx="1"/>
      <rect x="40" y="35" width="6" height="8" rx="1"/>
      <rect x="50" y="35" width="6" height="8" rx="1"/>
      <rect x="63" y="41" width="5" height="7" rx="1"/>
      <rect x="81" y="28" width="5" height="7" rx="1"/>
      <rect x="98" y="15" width="6" height="8" rx="1"/>
      <rect x="108" y="15" width="6" height="8" rx="1"/>
      <rect x="98" y="31" width="6" height="8" rx="1"/>
      <rect x="108" y="31" width="6" height="8" rx="1"/>
      <rect x="118" y="36" width="5" height="7" rx="1"/>
    </g>
  </g>
</svg>
