# Created by Kenney (www.kenney.nl)

mtllib cliff-corner.mtl

g cliff-corner

v 0.5 0 0.5 1 1 1
v 0.5 0 -0.5 1 1 1
v -0.5 0 0.5 1 1 1
v -0.25 0 -0.25 1 1 1
v 0.5 1 -0.5 1 1 1
v 0.5 1 0.5 1 1 1
v -0.5 1 0.5 1 1 1
v -0.25 1 -0.25 1 1 1

vn 0 -1 0
vn 1 0 0
vn 0 0 1
vn -0.7071068 0 -0.7071068
vn -0.3162278 0 -0.9486833
vn -0.9486833 0 -0.3162278
vn 0 1 0

vt 0 0
vt 0 -1
vt -1 0
vt -0.75 -0.75
vt 0.5 1
vt 0.5 0
vt -0.5 1
vt -0.5 0
vt 6 -3.205931E-31
vt 5 -3.205931E-31
vt 6 1
vt 5 1
vt 5 -6.411861E-31
vt 6 -6.411861E-31
vt 1.44329E-15 0
vt 1.44329E-15 1
vt 0.75 0.25
vt 1 1

usemtl rock

f 3/3/1 2/2/1 1/1/1
f 2/2/1 3/3/1 4/4/1
f 6/7/2 2/6/2 5/5/2
f 2/6/2 6/7/2 1/8/2
f 6/5/3 3/8/3 1/6/3
f 3/8/3 6/5/3 7/7/3
f 8/11/4 2/10/5 4/9/4
f 2/10/5 8/11/4 5/12/5
f 3/14/6 8/12/4 4/13/4
f 8/12/4 3/14/6 7/11/6

usemtl grass

f 8/17/7 6/16/7 5/15/7
f 6/16/7 8/17/7 7/18/7

g cliff-corner




usemtl rock

f 3/3/1 2/2/1 1/1/1
f 2/2/1 3/3/1 4/4/1
f 6/7/2 2/6/2 5/5/2
f 2/6/2 6/7/2 1/8/2
f 6/5/3 3/8/3 1/6/3
f 3/8/3 6/5/3 7/7/3
f 8/11/4 2/10/5 4/9/4
f 2/10/5 8/11/4 5/12/5
f 3/14/6 8/12/4 4/13/4
f 8/12/4 3/14/6 7/11/6

usemtl grass

f 8/17/7 6/16/7 5/15/7
f 6/16/7 8/17/7 7/18/7

