# Created by Kenney (www.kenney.nl)

mtllib detail-beam.mtl

g detail-beam

v 0.075 0.2 -0.45 1 1 1
v 0.075 0.05 -0.45 1 1 1
v 0.075 0.2 0.45 1 1 1
v 0.075 0.05 0.45 1 1 1
v -0.075 0.05 -0.45 1 1 1
v -0.075 0.2 -0.45 1 1 1
v -0.075 0.05 0.45 1 1 1
v -0.075 0.2 0.45 1 1 1
v -0.125 0.2 -0.5 1 1 1
v -0.125 0.25 -0.5 1 1 1
v -0.125 0.2 0.5 1 1 1
v -0.125 0.25 0.5 1 1 1
v 0.125 0.2 -0.5 1 1 1
v 0.125 0.25 -0.5 1 1 1
v 0.125 0 0.5 1 1 1
v -0.125 0 0.5 1 1 1
v 0.125 0.05 0.5 1 1 1
v -0.125 0.05 0.5 1 1 1
v 0.125 0 -0.5 1 1 1
v -0.125 0 -0.5 1 1 1
v 0.125 0.05 -0.5 1 1 1
v 0.125 0.25 0.5 1 1 1
v 0.125 0.2 0.5 1 1 1
v -0.125 0.05 -0.5 1 1 1

vn 1 0 0
vn -1 0 0
vn 0 0 -1
vn 0 0 1
vn 0 -1 0
vn 0 1 0

vt -0.2895798 0.5275087
vt -0.1090044 0.5275087
vt -0.2895799 -0.5559434
vt -0.1090045 -0.5559434
vt -0.1090025 16.29776
vt -0.2895779 16.29776
vt -0.1090024 17.38121
vt -0.2895778 17.38121
vt -0.1090025 16.23756
vt -0.1090029 16.05699
vt -0.2895779 16.23756
vt -0.2895783 16.05699
vt -0.109002 17.62197
vt -0.1090024 17.4414
vt -0.2895774 17.62198
vt -0.2895778 17.4414
vt -0.5 0.2
vt -0.5 0.25
vt 0.5 0.2
vt 0.5 0.25
vt 0.125 0.2
vt -0.125 0.2
vt 0.125 0.25
vt -0.125 0.25
vt 0.125 0
vt -0.125 0
vt 0.125 0.05
vt -0.125 0.05
vt 0.125 0.5
vt 0.125 -0.5
vt -0.125 0.5
vt -0.125 -0.5
vt 0.5 0.05
vt 0.5 0
vt -0.5 0.05
vt -0.5 0
vt -0.4328589 16.23757
vt -0.3726669 16.29776
vt -0.4328592 16.05699
vt -1.516311 16.23757
vt -0.3726675 15.9968
vt -1.576503 16.29776
vt -1.576503 15.9968
vt -1.516312 16.05699
vt -1.516311 17.4414
vt -1.576503 17.38121
vt -1.516311 17.62198
vt -0.4328587 17.4414
vt -1.576502 17.68217
vt -0.372667 17.38121
vt -0.3726664 17.68217
vt -0.4328583 17.62198

usemtl roof

f 3/3/1 2/2/1 1/1/1
f 2/2/1 3/3/1 4/4/1
f 7/7/2 6/6/2 5/5/2
f 6/6/2 7/7/2 8/8/2
f 6/11/3 2/10/3 5/9/3
f 2/10/3 6/11/3 1/12/3
f 3/15/4 7/14/4 4/13/4
f 7/14/4 3/15/4 8/16/4

usemtl metal

f 11/19/2 10/18/2 9/17/2
f 10/18/2 11/19/2 12/20/2
f 10/23/3 13/22/3 9/21/3
f 13/22/3 10/23/3 14/24/3
f 17/27/4 16/26/4 15/25/4
f 16/26/4 17/27/4 18/28/4
f 16/31/5 19/30/5 15/29/5
f 19/30/5 16/31/5 20/32/5
f 17/35/1 19/34/1 21/33/1
f 19/34/1 17/35/1 15/36/1
f 22/18/1 13/19/1 14/20/1
f 13/19/1 22/18/1 23/17/1
f 24/27/3 19/26/3 20/25/3
f 19/26/3 24/27/3 21/28/3
f 22/23/4 11/22/4 23/21/4
f 11/22/4 22/23/4 12/24/4
f 16/34/2 24/35/2 20/36/2
f 24/35/2 16/34/2 18/33/2
f 10/30/6 22/31/6 14/32/6
f 22/31/6 10/30/6 12/29/6
f 2/39/6 24/38/6 5/37/6
f 5/37/6 24/38/6 7/40/6
f 2/39/6 21/41/6 24/38/6
f 18/42/6 7/40/6 24/38/6
f 21/41/6 2/39/6 17/43/6
f 18/42/6 4/44/6 7/40/6
f 17/43/6 4/44/6 18/42/6
f 4/44/6 17/43/6 2/39/6
f 3/47/5 11/46/5 8/45/5
f 8/45/5 11/46/5 6/48/5
f 3/47/5 23/49/5 11/46/5
f 9/50/5 6/48/5 11/46/5
f 23/49/5 3/47/5 13/51/5
f 9/50/5 1/52/5 6/48/5
f 13/51/5 1/52/5 9/50/5
f 1/52/5 13/51/5 3/47/5

g detail-beam




usemtl roof

f 3/3/1 2/2/1 1/1/1
f 2/2/1 3/3/1 4/4/1
f 7/7/2 6/6/2 5/5/2
f 6/6/2 7/7/2 8/8/2
f 6/11/3 2/10/3 5/9/3
f 2/10/3 6/11/3 1/12/3
f 3/15/4 7/14/4 4/13/4
f 7/14/4 3/15/4 8/16/4

usemtl metal

f 11/19/2 10/18/2 9/17/2
f 10/18/2 11/19/2 12/20/2
f 10/23/3 13/22/3 9/21/3
f 13/22/3 10/23/3 14/24/3
f 17/27/4 16/26/4 15/25/4
f 16/26/4 17/27/4 18/28/4
f 16/31/5 19/30/5 15/29/5
f 19/30/5 16/31/5 20/32/5
f 17/35/1 19/34/1 21/33/1
f 19/34/1 17/35/1 15/36/1
f 22/18/1 13/19/1 14/20/1
f 13/19/1 22/18/1 23/17/1
f 24/27/3 19/26/3 20/25/3
f 19/26/3 24/27/3 21/28/3
f 22/23/4 11/22/4 23/21/4
f 11/22/4 22/23/4 12/24/4
f 16/34/2 24/35/2 20/36/2
f 24/35/2 16/34/2 18/33/2
f 10/30/6 22/31/6 14/32/6
f 22/31/6 10/30/6 12/29/6
f 2/39/6 24/38/6 5/37/6
f 5/37/6 24/38/6 7/40/6
f 2/39/6 21/41/6 24/38/6
f 18/42/6 7/40/6 24/38/6
f 21/41/6 2/39/6 17/43/6
f 18/42/6 4/44/6 7/40/6
f 17/43/6 4/44/6 18/42/6
f 4/44/6 17/43/6 2/39/6
f 3/47/5 11/46/5 8/45/5
f 8/45/5 11/46/5 6/48/5
f 3/47/5 23/49/5 11/46/5
f 9/50/5 6/48/5 11/46/5
f 23/49/5 3/47/5 13/51/5
f 9/50/5 1/52/5 6/48/5
f 13/51/5 1/52/5 9/50/5
f 1/52/5 13/51/5 3/47/5

