# Created by Kenney (www.kenney.nl)

mtllib detail-dumpster-closed.mtl

g detail-dumpster-closed

v 0.3 0.3 -0.2 1 1 1
v 0.3 0 -0.2 1 1 1
v 0.3 0.5 0.2 1 1 1
v 0.3 0 0.2 1 1 1
v -0.3 0 0.2 1 1 1
v -0.3 0.5 0.2 1 1 1
v -0.3 0 -0.2 1 1 1
v -0.3 0.3 -0.2 1 1 1
v 0.3 0.5447214 0.1776393 1 1 1
v -0.3 0.5447214 0.1776393 1 1 1
v 0.3 0.3290689 -0.2536656 1 1 1
v -0.3 0.3290689 -0.2536656 1 1 1
v 0.3 0.2843475 -0.231305 1 1 1
v 0.3 0.5 0.2 1 1 1
v -0.3 0.2843475 -0.231305 1 1 1
v -0.3 0.5 0.2 1 1 1

vn 1 0 0
vn 0 0 1
vn -1 0 0
vn 0 0 -1
vn 0 -1 0
vn 0 0.8944272 -0.4472136
vn 0 -0.4472136 -0.8944272
vn 0 0.4472136 0.8944272
vn 0 -0.8944272 0.4472136

vt 13.4 0.3
vt 13.4 0
vt 13 0.5
vt 13 0
vt 1 0
vt -6.661338E-16 0
vt 1.000001 0.8333333
vt 3.185974E-07 0.8333333
vt 13.6 0
vt 13.6 0.3
vt 14 0
vt 14 0.5
vt -1.44329E-15 0
vt -1 0
vt 8.504246E-08 0.5
vt -0.9999999 0.5
vt -1.357188 -0.8879804
vt -1.357188 -0.9965873
vt -1.520098 -0.8879802
vt -1.520098 -0.9965872
vt 6.664004E-08 0.745356
vt 1 0.745356
vt -5.215393E-09 -0.05833333
vt 1 -0.05833333
vt 0.06930045 0.006733106
vt -0.01403289 0.006733113
vt 0.06930052 0.8104224
vt -0.01403281 0.8104224
vt 1 -0.08333334
vt 7.771561E-15 -0.08333334
vt 1 -1.279532E-14
vt 9.048318E-15 -1.226796E-14
vt 0.9300252 -0.03396111
vt 0.9300253 0.7697281
vt 1.013359 -0.03396111
vt 1.013359 0.7697281
vt 7.219337E-08 0.8286893
vt 1 0.8286893
vt 1 0.7453559
vt 14.99926 0.8238833
vt 14.99926 0.02019398
vt 13.99926 0.8238833
vt 13.99926 0.02019398

usemtl wall_metal

f 3/3/1 2/2/1 1/1/1
f 2/2/1 3/3/1 4/4/1
f 3/7/2 5/6/2 4/5/2
f 5/6/2 3/7/2 6/8/2
f 5/11/3 8/10/3 7/9/3
f 8/10/3 5/11/3 6/12/3
f 8/15/4 2/14/4 7/13/4
f 2/14/4 8/15/4 1/16/4

usemtl wall

f 5/19/5 2/18/5 4/17/5
f 2/18/5 5/19/5 7/20/5

usemtl roof

f 11/23/6 10/22/6 9/21/6
f 10/22/6 11/23/6 12/24/6
f 9/27/1 13/26/1 11/25/1
f 13/26/1 9/27/1 14/28/1
f 12/31/7 13/30/7 15/29/7
f 13/30/7 12/31/7 11/32/7
f 15/35/3 10/34/3 12/33/3
f 10/34/3 15/35/3 16/36/3
f 9/21/8 16/38/8 14/37/8
f 16/38/8 9/21/8 10/39/8
f 16/42/9 13/41/9 14/40/9
f 13/41/9 16/42/9 15/43/9

g detail-dumpster-closed




usemtl wall_metal

f 3/3/1 2/2/1 1/1/1
f 2/2/1 3/3/1 4/4/1
f 3/7/2 5/6/2 4/5/2
f 5/6/2 3/7/2 6/8/2
f 5/11/3 8/10/3 7/9/3
f 8/10/3 5/11/3 6/12/3
f 8/15/4 2/14/4 7/13/4
f 2/14/4 8/15/4 1/16/4

usemtl wall

f 5/19/5 2/18/5 4/17/5
f 2/18/5 5/19/5 7/20/5

usemtl roof

f 11/23/6 10/22/6 9/21/6
f 10/22/6 11/23/6 12/24/6
f 9/27/1 13/26/1 11/25/1
f 13/26/1 9/27/1 14/28/1
f 12/31/7 13/30/7 15/29/7
f 13/30/7 12/31/7 11/32/7
f 15/35/3 10/34/3 12/33/3
f 10/34/3 15/35/3 16/36/3
f 9/21/8 16/38/8 14/37/8
f 16/38/8 9/21/8 10/39/8
f 16/42/9 13/41/9 14/40/9
f 13/41/9 16/42/9 15/43/9

