# Created by Kenney (www.kenney.nl)

mtllib detail-block.mtl

g detail-block

v 0.25 0.5 -0.25 1 1 1
v 0.25 0.5 0.25 1 1 1
v -0.25 0.5 -0.25 1 1 1
v -0.25 0.5 0.25 1 1 1
v -0.25 0 -0.25 1 1 1
v -0.25 0 0.25 1 1 1
v 0.25 0 -0.25 1 1 1
v 0.25 0 0.25 1 1 1

vn 0 1 0
vn -1 0 0
vn 0 0 -1
vn 1 0 0
vn 0 0 1
vn 0 -1 0

vt 4 -10.5
vt 4 -10
vt 4.5 -10.5
vt 4.5 -10
vt 5 -10.5
vt 5 -10
vt 5 -11
vt 4.5 -11

usemtl concrete

f 3/3/1 2/2/1 1/1/1
f 2/2/1 3/3/1 4/4/1
f 6/6/2 3/3/2 5/5/2
f 3/3/2 6/6/2 4/4/2
f 3/3/3 7/7/3 5/5/3
f 7/7/3 3/3/3 1/8/3
f 2/8/4 7/5/4 1/3/4
f 7/5/4 2/8/4 8/7/4
f 2/4/5 6/5/5 8/6/5
f 6/5/5 2/4/5 4/3/5
f 6/4/6 7/1/6 8/2/6
f 7/1/6 6/4/6 5/3/6

g detail-block




usemtl concrete

f 3/3/1 2/2/1 1/1/1
f 2/2/1 3/3/1 4/4/1
f 6/6/2 3/3/2 5/5/2
f 3/3/2 6/6/2 4/4/2
f 3/3/3 7/7/3 5/5/3
f 7/7/3 3/3/3 1/8/3
f 2/8/4 7/5/4 1/3/4
f 7/5/4 2/8/4 8/7/4
f 2/4/5 6/5/5 8/6/5
f 6/5/5 2/4/5 4/3/5
f 6/4/6 7/1/6 8/2/6
f 7/1/6 6/4/6 5/3/6

