# Created by Kenney (www.kenney.nl)

mtllib detail-bench.mtl

g detail-bench

v 0.23495 3.492923E-13 0.1360625 1 1 1
v 0.16795 3.492923E-13 0.1360625 1 1 1
v 0.23495 0.1506 0.08606251 1 1 1
v 0.16795 0.1506 0.08606251 1 1 1
v 0.16795 3.492923E-13 0.06906251 1 1 1
v 0.23495 3.492923E-13 0.06906251 1 1 1
v 0.16795 0.1506 0.0190625 1 1 1
v 0.23495 0.1506 0.0190625 1 1 1
v 0.23495 0.3765 0.1610625 1 1 1
v 0.16795 0.3765 0.1610625 1 1 1
v 0.23495 0.3931485 0.09958988 1 1 1
v 0.16795 0.3931485 0.09958988 1 1 1
v -0.16795 3.493149E-13 0.1360625 1 1 1
v -0.23495 3.493149E-13 0.1360625 1 1 1
v -0.16795 0.1506 0.08606249 1 1 1
v -0.23495 0.1506 0.08606249 1 1 1
v -0.23495 3.493149E-13 0.06906249 1 1 1
v -0.16795 3.493149E-13 0.06906249 1 1 1
v -0.23495 0.1506 0.01906249 1 1 1
v -0.16795 0.1506 0.01906249 1 1 1
v -0.16795 0.3765 0.1610625 1 1 1
v -0.23495 0.3765 0.1610625 1 1 1
v -0.16795 0.3931485 0.09958987 1 1 1
v -0.23495 0.3931485 0.09958987 1 1 1
v 0.23495 0 -0.09406249 1 1 1
v 0.23495 0 -0.1610625 1 1 1
v 0.16795 0 -0.09406249 1 1 1
v 0.16795 0 -0.1610625 1 1 1
v 0.23495 0.1506 -0.09406249 1 1 1
v 0.16795 0.1506 -0.09406249 1 1 1
v 0.16795 0.1506 -0.1610625 1 1 1
v 0.23495 0.1506 -0.1610625 1 1 1
v -0.16795 2.255973E-17 -0.09406249 1 1 1
v -0.16795 2.255973E-17 -0.1610625 1 1 1
v -0.23495 2.255973E-17 -0.09406249 1 1 1
v -0.23495 2.255973E-17 -0.1610625 1 1 1
v -0.16795 0.1506 -0.09406249 1 1 1
v -0.23495 0.1506 -0.09406249 1 1 1
v -0.23495 0.1506 -0.1610625 1 1 1
v -0.16795 0.1506 -0.1610625 1 1 1
v 0.30195 0.2012 -0.1610625 1 1 1
v 0.30195 0.1506 -0.1610625 1 1 1
v 0.30195 0.2012 0.03586198 1 1 1
v 0.30195 0.1506 0.01906251 1 1 1
v -0.30195 0.1506 0.01906249 1 1 1
v -0.30195 0.2012 0.03586195 1 1 1
v -0.30195 0.2012 -0.1610625 1 1 1
v -0.30195 0.1506 -0.1610625 1 1 1
v 0.30195 0.2785963 0.008242102 1 1 1
v 0.30195 0.2626526 0.05626457 1 1 1
v 0.30195 0.4090922 0.05156743 1 1 1
v 0.30195 0.3931485 0.09958991 1 1 1
v -0.30195 0.3931485 0.09958991 1 1 1
v -0.30195 0.4090922 0.05156743 1 1 1
v -0.30195 0.2785963 0.008242095 1 1 1
v -0.30195 0.2626526 0.05626457 1 1 1

vn 0 0.3150932 0.9490607
vn 0 -0.3150932 -0.9490607
vn 0 0.9652278 0.2614101
vn 0 -0.3150932 0.9490608
vn 0 -1 0
vn 0 0.3150932 -0.9490608
vn 1 0 0
vn -1 0 0
vn 0 0 1
vn 0 0 -1
vn 0 -0.3150932 0.9490607
vn 0 1 0
vn 1 2.043896E-10 -6.819916E-10
vn 2.091283E-11 0.9490607 0.3150933
vn -1 -2.043896E-10 6.819916E-10
vn 7.116532E-10 -0.3150933 0.9490607
vn -2.091283E-11 -0.9490607 -0.3150933
vn -7.116532E-10 0.3150933 -0.9490607

vt 0.0335 -0.01449429
vt -0.0335 -0.01449429
vt 0.0335 0.1441889
vt -0.0335 0.1441889
vt 0.0335 0.006616957
vt -0.0335 0.006616957
vt 0.0335 0.1653002
vt -0.0335 0.1653002
vt 0.0335 0.02988973
vt -0.0335 0.02988973
vt 0.0335 0.09357689
vt -0.0335 0.09357689
vt 0.0335 0.1416682
vt -0.0335 0.1416682
vt 0.0335 0.379693
vt -0.0335 0.379693
vt 0.0335 0.046
vt 0.0335 -0.021
vt -0.0335 0.046
vt -0.0335 -0.021
vt 0.0335 0.1205569
vt -0.0335 0.1205569
vt 0.0335 0.3761238
vt -0.0335 0.3761238
vt 0.071 0.1506
vt 0.021 -1.349177E-10
vt -0.009527379 0.3931485
vt 0.004 0.1506
vt -0.071 0.3765
vt -0.046 -1.349177E-10
vt -0.021 9.719623E-11
vt -0.004 0.1506
vt 0.046 9.719623E-11
vt 0.00952738 0.3931485
vt 0.071 0.3765
vt -0.071 0.1506
vt 0.0335 0.0335
vt 0.0335 -0.0335
vt -0.0335 0.0335
vt -0.0335 -0.0335
vt 0.0335 0
vt -0.0335 0
vt 0.0335 0.1506
vt -0.0335 0.1506
vt 1.669282 -0.9712753
vt 1.669282 -0.8947635
vt 1.96705 -0.9712753
vt 1.941647 -0.8947635
vt 0.09945311 -0.7291092
vt 0.09945478 0.2778191
vt 0.1883507 -0.7291093
vt 0.1883524 0.2778189
vt 1.66928 -2.442041
vt 1.967047 -2.442042
vt 1.669279 -2.518553
vt 1.941645 -2.518554
vt 2.186468 -1
vt 2.186467 -2.006929
vt 2 -1
vt 1.999998 -2.006929
vt 1.760082 -0.9583762
vt 1.844451 -0.9583763
vt 1.76008 -1.965304
vt 1.844449 -1.965305
vt 1.669277 -0.9712722
vt 1.967042 -0.9712716
vt 1.669274 -2.442033
vt 1.96704 -2.442033
vt 1.794498 -0.9597664
vt 1.794498 -0.8911459
vt 1.980967 -0.9597664
vt 1.980967 -0.8911458
vt 1.760082 -0.729112
vt 1.760084 0.2778163
vt 1.844451 -0.7291121
vt 1.844453 0.2778162
vt 1.794496 -1.966695
vt 1.980965 -1.966695
vt 1.794496 -2.035315
vt 1.980965 -2.035316
vt 1.794492 -0.9597636
vt 1.98096 -0.9597632
vt 1.794491 -1.966689
vt 1.980958 -1.966689

usemtl metal

f 3/3/1 2/2/1 1/1/1
f 2/2/1 3/3/1 4/4/1
f 7/7/2 6/6/2 5/5/2
f 6/6/2 7/7/2 8/8/2
f 11/11/3 10/10/3 9/9/3
f 10/10/3 11/11/3 12/12/3
f 9/15/4 4/14/4 3/13/4
f 4/14/4 9/15/4 10/16/4
f 2/19/5 6/18/5 1/17/5
f 6/18/5 2/19/5 5/20/5
f 12/23/6 8/22/6 7/21/6
f 8/22/6 12/23/6 11/24/6
f 11/27/7 6/26/7 8/25/7
f 6/26/7 11/27/7 3/28/7
f 3/28/7 11/27/7 9/29/7
f 1/30/7 6/26/7 3/28/7
f 2/33/8 4/32/8 5/31/8
f 12/34/8 5/31/8 4/32/8
f 12/34/8 4/32/8 10/35/8
f 5/31/8 12/34/8 7/36/8
f 15/3/1 14/2/1 13/1/1
f 14/2/1 15/3/1 16/4/1
f 19/7/2 18/6/2 17/5/2
f 18/6/2 19/7/2 20/8/2
f 23/11/3 22/10/3 21/9/3
f 22/10/3 23/11/3 24/12/3
f 21/15/4 16/14/4 15/13/4
f 16/14/4 21/15/4 22/16/4
f 14/19/5 18/18/5 13/17/5
f 18/18/5 14/19/5 17/20/5
f 24/23/6 20/22/6 19/21/6
f 20/22/6 24/23/6 23/24/6
f 23/27/7 18/26/7 20/25/7
f 18/26/7 23/27/7 15/28/7
f 15/28/7 23/27/7 21/29/7
f 13/30/7 18/26/7 15/28/7
f 14/33/8 16/32/8 17/31/8
f 24/34/8 17/31/8 16/32/8
f 24/34/8 16/32/8 22/35/8
f 17/31/8 24/34/8 19/36/8
f 27/39/5 26/38/5 25/37/5
f 26/38/5 27/39/5 28/40/5
f 29/43/9 27/42/9 25/41/9
f 27/42/9 29/43/9 30/44/9
f 27/41/8 31/44/8 28/42/8
f 31/44/8 27/41/8 30/43/8
f 31/43/10 26/42/10 28/41/10
f 26/42/10 31/43/10 32/44/10
f 29/44/7 26/41/7 32/43/7
f 26/41/7 29/44/7 25/42/7
f 35/39/5 34/38/5 33/37/5
f 34/38/5 35/39/5 36/40/5
f 37/43/9 35/42/9 33/41/9
f 35/42/9 37/43/9 38/44/9
f 35/41/8 39/44/8 36/42/8
f 39/44/8 35/41/8 38/43/8
f 39/43/10 34/42/10 36/41/10
f 34/42/10 39/43/10 40/44/10
f 37/44/7 34/41/7 40/43/7
f 34/41/7 37/44/7 33/42/7

usemtl planks

f 43/47/7 42/46/7 41/45/7
f 42/46/7 43/47/7 44/48/7
f 43/51/11 45/50/11 44/49/11
f 45/50/11 43/51/11 46/52/11
f 48/55/8 46/54/8 47/53/8
f 46/54/8 48/55/8 45/56/8
f 44/59/5 48/58/5 42/57/5
f 48/58/5 44/59/5 45/60/5
f 48/63/10 41/62/10 42/61/10
f 41/62/10 48/63/10 47/64/10
f 47/67/12 43/66/12 41/65/12
f 43/66/12 47/67/12 46/68/12
f 51/71/13 50/70/13 49/69/13
f 50/70/13 51/71/13 52/72/13
f 51/75/14 53/74/14 52/73/14
f 53/74/14 51/75/14 54/76/14
f 56/79/15 54/78/15 55/77/15
f 54/78/15 56/79/15 53/80/15
f 52/59/16 56/58/16 50/57/16
f 56/58/16 52/59/16 53/60/16
f 56/63/17 49/62/17 50/61/17
f 49/62/17 56/63/17 55/64/17
f 55/83/18 51/82/18 49/81/18
f 51/82/18 55/83/18 54/84/18

g detail-bench




usemtl metal

f 3/3/1 2/2/1 1/1/1
f 2/2/1 3/3/1 4/4/1
f 7/7/2 6/6/2 5/5/2
f 6/6/2 7/7/2 8/8/2
f 11/11/3 10/10/3 9/9/3
f 10/10/3 11/11/3 12/12/3
f 9/15/4 4/14/4 3/13/4
f 4/14/4 9/15/4 10/16/4
f 2/19/5 6/18/5 1/17/5
f 6/18/5 2/19/5 5/20/5
f 12/23/6 8/22/6 7/21/6
f 8/22/6 12/23/6 11/24/6
f 11/27/7 6/26/7 8/25/7
f 6/26/7 11/27/7 3/28/7
f 3/28/7 11/27/7 9/29/7
f 1/30/7 6/26/7 3/28/7
f 2/33/8 4/32/8 5/31/8
f 12/34/8 5/31/8 4/32/8
f 12/34/8 4/32/8 10/35/8
f 5/31/8 12/34/8 7/36/8
f 15/3/1 14/2/1 13/1/1
f 14/2/1 15/3/1 16/4/1
f 19/7/2 18/6/2 17/5/2
f 18/6/2 19/7/2 20/8/2
f 23/11/3 22/10/3 21/9/3
f 22/10/3 23/11/3 24/12/3
f 21/15/4 16/14/4 15/13/4
f 16/14/4 21/15/4 22/16/4
f 14/19/5 18/18/5 13/17/5
f 18/18/5 14/19/5 17/20/5
f 24/23/6 20/22/6 19/21/6
f 20/22/6 24/23/6 23/24/6
f 23/27/7 18/26/7 20/25/7
f 18/26/7 23/27/7 15/28/7
f 15/28/7 23/27/7 21/29/7
f 13/30/7 18/26/7 15/28/7
f 14/33/8 16/32/8 17/31/8
f 24/34/8 17/31/8 16/32/8
f 24/34/8 16/32/8 22/35/8
f 17/31/8 24/34/8 19/36/8
f 27/39/5 26/38/5 25/37/5
f 26/38/5 27/39/5 28/40/5
f 29/43/9 27/42/9 25/41/9
f 27/42/9 29/43/9 30/44/9
f 27/41/8 31/44/8 28/42/8
f 31/44/8 27/41/8 30/43/8
f 31/43/10 26/42/10 28/41/10
f 26/42/10 31/43/10 32/44/10
f 29/44/7 26/41/7 32/43/7
f 26/41/7 29/44/7 25/42/7
f 35/39/5 34/38/5 33/37/5
f 34/38/5 35/39/5 36/40/5
f 37/43/9 35/42/9 33/41/9
f 35/42/9 37/43/9 38/44/9
f 35/41/8 39/44/8 36/42/8
f 39/44/8 35/41/8 38/43/8
f 39/43/10 34/42/10 36/41/10
f 34/42/10 39/43/10 40/44/10
f 37/44/7 34/41/7 40/43/7
f 34/41/7 37/44/7 33/42/7

usemtl planks

f 43/47/7 42/46/7 41/45/7
f 42/46/7 43/47/7 44/48/7
f 43/51/11 45/50/11 44/49/11
f 45/50/11 43/51/11 46/52/11
f 48/55/8 46/54/8 47/53/8
f 46/54/8 48/55/8 45/56/8
f 44/59/5 48/58/5 42/57/5
f 48/58/5 44/59/5 45/60/5
f 48/63/10 41/62/10 42/61/10
f 41/62/10 48/63/10 47/64/10
f 47/67/12 43/66/12 41/65/12
f 43/66/12 47/67/12 46/68/12
f 51/71/13 50/70/13 49/69/13
f 50/70/13 51/71/13 52/72/13
f 51/75/14 53/74/14 52/73/14
f 53/74/14 51/75/14 54/76/14
f 56/79/15 54/78/15 55/77/15
f 54/78/15 56/79/15 53/80/15
f 52/59/16 56/58/16 50/57/16
f 56/58/16 52/59/16 53/60/16
f 56/63/17 49/62/17 50/61/17
f 49/62/17 56/63/17 55/64/17
f 55/83/18 51/82/18 49/81/18
f 51/82/18 55/83/18 54/84/18

