# Created by Kenney (www.kenney.nl)

mtllib planks.mtl

g planks

v 0.4454949 0.05 -0.1430143 1 1 1
v 0.4454949 0 -0.1430143 1 1 1
v 0.429295 0.05 0.006108373 1 1 1
v 0.429295 1.380656E-13 0.006108373 1 1 1
v -0.5648559 1.380881E-13 -0.101891 1 1 1
v -0.5648559 0.05 -0.101891 1 1 1
v -0.548656 0.05 -0.2510136 1 1 1
v -0.548656 2.255973E-17 -0.2510136 1 1 1
v -0.4772745 0.1 -0.1500916 1 1 1
v -0.4772745 0.05 -0.1500916 1 1 1
v -0.4119899 0.1 -0.2851394 1 1 1
v -0.4119899 0.05 -0.2851394 1 1 1
v 0.4883288 0.05 0.1500916 1 1 1
v 0.4883288 0.1 0.1500916 1 1 1
v 0.4230441 0.1 0.2851394 1 1 1
v 0.4230441 0.05 0.2851394 1 1 1
v -0.4323292 0.05 0.2459412 1 1 1
v -0.4323292 3.609557E-16 0.2459412 1 1 1
v -0.443576 0.05 0.09636339 1 1 1
v -0.443576 1.384265E-13 0.09636339 1 1 1
v 0.5536091 1.384491E-13 0.02138469 1 1 1
v 0.5536091 0.05 0.02138469 1 1 1
v 0.564856 0.05 0.1709625 1 1 1
v 0.564856 3.835154E-16 0.1709625 1 1 1

vn 0.9941509 0 0.1079993
vn -0.1079993 0 0.9941509
vn -0.9941509 0 -0.1079993
vn 0 -1 0
vn 0.1079993 0 -0.9941509
vn 0 1 0
vn -0.9003187 0 -0.4352311
vn 0.4352311 0 -0.9003187
vn 0.9003187 0 0.4352311
vn -0.4352311 0 0.9003187
vn -0.9971852 0 0.07497872
vn -0.07497872 0 -0.9971852
vn 0.9971852 0 -0.07497872
vn 0.07497872 0 0.9971852

vt 1.888119 -0.9440593
vt 1.888119 -0.8881186
vt 2 -0.9440593
vt 2 -0.8881186
vt 1.999993 -0.9999967
vt 1.999992 -2.118803
vt 1.944053 -0.9999968
vt 1.944051 -2.118803
vt 1.888117 -2.17475
vt 1.999998 -2.17475
vt 1.888117 -2.230691
vt 1.999998 -2.230691
vt 2.111881 -1
vt 2.111879 -2.11881
vt 2 -1
vt 1.999998 -2.11881
vt 1.776238 -0.9999998
vt 1.832178 -0.9999999
vt 1.776236 -2.118809
vt 1.832176 -2.118809
vt 1.888113 -0.9999968
vt 1.888111 -2.118803

usemtl planks

f 3/3/1 2/2/1 1/1/1
f 2/2/1 3/3/1 4/4/1
f 3/7/2 5/6/2 4/5/2
f 5/6/2 3/7/2 6/8/2
f 8/11/3 6/10/3 7/9/3
f 6/10/3 8/11/3 5/12/3
f 4/15/4 8/14/4 2/13/4
f 8/14/4 4/15/4 5/16/4
f 8/19/5 1/18/5 2/17/5
f 1/18/5 8/19/5 7/20/5
f 7/22/6 3/5/6 1/21/6
f 3/5/6 7/22/6 6/6/6
f 11/3/7 10/2/7 9/1/7
f 10/2/7 11/3/7 12/4/7
f 11/7/8 13/6/8 12/5/8
f 13/6/8 11/7/8 14/8/8
f 16/11/9 14/10/9 15/9/9
f 14/10/9 16/11/9 13/12/9
f 12/15/4 16/14/4 10/13/4
f 16/14/4 12/15/4 13/16/4
f 16/19/10 9/18/10 10/17/10
f 9/18/10 16/19/10 15/20/10
f 15/22/6 11/5/6 9/21/6
f 11/5/6 15/22/6 14/6/6
f 19/3/11 18/2/11 17/1/11
f 18/2/11 19/3/11 20/4/11
f 19/7/12 21/6/12 20/5/12
f 21/6/12 19/7/12 22/8/12
f 24/11/13 22/10/13 23/9/13
f 22/10/13 24/11/13 21/12/13
f 20/15/4 24/14/4 18/13/4
f 24/14/4 20/15/4 21/16/4
f 24/19/14 17/18/14 18/17/14
f 17/18/14 24/19/14 23/20/14
f 23/22/6 19/5/6 17/21/6
f 19/5/6 23/22/6 22/6/6

g planks




usemtl planks

f 3/3/1 2/2/1 1/1/1
f 2/2/1 3/3/1 4/4/1
f 3/7/2 5/6/2 4/5/2
f 5/6/2 3/7/2 6/8/2
f 8/11/3 6/10/3 7/9/3
f 6/10/3 8/11/3 5/12/3
f 4/15/4 8/14/4 2/13/4
f 8/14/4 4/15/4 5/16/4
f 8/19/5 1/18/5 2/17/5
f 1/18/5 8/19/5 7/20/5
f 7/22/6 3/5/6 1/21/6
f 3/5/6 7/22/6 6/6/6
f 11/3/7 10/2/7 9/1/7
f 10/2/7 11/3/7 12/4/7
f 11/7/8 13/6/8 12/5/8
f 13/6/8 11/7/8 14/8/8
f 16/11/9 14/10/9 15/9/9
f 14/10/9 16/11/9 13/12/9
f 12/15/4 16/14/4 10/13/4
f 16/14/4 12/15/4 13/16/4
f 16/19/10 9/18/10 10/17/10
f 9/18/10 16/19/10 15/20/10
f 15/22/6 11/5/6 9/21/6
f 11/5/6 15/22/6 14/6/6
f 19/3/11 18/2/11 17/1/11
f 18/2/11 19/3/11 20/4/11
f 19/7/12 21/6/12 20/5/12
f 21/6/12 19/7/12 22/8/12
f 24/11/13 22/10/13 23/9/13
f 22/10/13 24/11/13 21/12/13
f 20/15/4 24/14/4 18/13/4
f 24/14/4 20/15/4 21/16/4
f 24/19/14 17/18/14 18/17/14
f 17/18/14 24/19/14 23/20/14
f 23/22/6 19/5/6 17/21/6
f 19/5/6 23/22/6 22/6/6

