# Created by Kenney (www.kenney.nl)

mtllib road-dirt-corner.mtl

g road-dirt-corner

v 1 1.402595E-29 0.5 1 1 1
v 0.75 1.402595E-29 0.5669873 1 1 1
v 1 1.804779E-16 -0.5 1 1 1
v 0.6117714 1.743282E-16 -0.4488887 1 1 1
v 0.5669873 1.402595E-29 0.75 1 1 1
v 0.25 1.562984E-16 -0.2990381 1 1 1
v 0.5 1.402595E-29 1 1 1 1
v -0.5 0 1 1 1 1
v -0.06066017 1.276171E-16 -0.06066017 1 1 1
v -0.2990381 9.023893E-17 0.25 1 1 1
v -0.4488887 4.67111E-17 0.6117714 1 1 1
v -1 1.402595E-29 -1 1 1 1
v 1 1.402595E-29 -1 1 1 1
v -1 0.05 -1 1 1 1
v 1 0.05 -1 1 1 1
v 1 0.05 -0.5 1 1 1
v -1 1.402595E-29 1 1 1 1
v -1 0.05 1 1 1 1
v 0.6117714 0.05 -0.4488887 1 1 1
v 0.25 0.05 -0.2990381 1 1 1
v -0.06066017 0.05 -0.06066017 1 1 1
v -0.2990381 0.05 0.25 1 1 1
v -0.4488887 0.05 0.6117714 1 1 1
v -0.5 0.05 1 1 1 1
v 1 1.402595E-29 1 1 1 1
v 1 0.05 1 1 1 1
v 0.5 0.05 1 1 1 1
v 1 0.05 0.5 1 1 1
v 0.75 0.05 0.5669873 1 1 1
v 0.5669873 0.05 0.75 1 1 1

vn 0 1 0
vn 0 0 -1
vn 1 0 0
vn -1 0 0
vn 0.1305262 0 0.9914449
vn 0.258819 0 0.9659258
vn 0.5 0 0.8660254
vn 0.7071068 0 0.7071068
vn 0.8660254 0 0.5
vn 0.9659258 0 0.258819
vn 0.9914449 0 0.1305262
vn 0 0 1
vn -0.258819 0 -0.9659258
vn -0.5 0 -0.8660254
vn -0.8660254 0 -0.5
vn -0.9659258 0 -0.258819

vt -1 -2
vt -0.9330128 -2.25
vt -2 -2
vt -1.948889 -2.388228
vt -0.7500001 -2.433013
vt -1.799038 -2.75
vt -0.5000001 -2.5
vt -0.5000002 -3.5
vt -1.56066 -3.06066
vt -1.25 -3.299038
vt -0.8882288 -3.448889
vt 3 -11.45
vt 5 -11.45
vt 3 -11.5
vt 5 -11.5
vt 5.5 -11.5
vt 5.5 -11.45
vt 1 -11.45
vt 1 -11.5
vt 4.447 -11.5
vt 4.447 -11.45
vt 4.839699 -11.5
vt 4.839699 -11.45
vt 5.232398 -11.5
vt 5.232398 -11.45
vt 5.625097 -11.5
vt 5.625097 -11.45
vt 6.017797 -11.5
vt 6.017797 -11.45
vt 6.410495 -11.5
vt 6.410495 -11.45
vt 6.803195 -11.5
vt 6.803195 -11.45
vt 3.5 -13.55
vt 3 -13.55
vt 3.5 -13.5
vt 3 -13.5
vt 5 -13.55
vt 4.5 -13.55
vt 5 -13.5
vt 4.5 -13.5
vt 5 -13
vt 5.05 -13
vt 5.05 -13.5
vt 6.541395 -11.5
vt 6.541395 -11.45
vt 6.279596 -11.45
vt 6.279596 -11.5
vt 8 -13.5
vt 7.5 -13.5
vt 8 -11.5
vt 7.448889 -13.11177
vt 7.299038 -12.75
vt 7.06066 -12.43934
vt 6.75 -12.20096
vt 6.388228 -12.05111
vt 6 -12
vt 6 -11.5
vt 3 -11
vt 2.75 -11.06699
vt 2.5 -11.5
vt 2.566987 -11.25

usemtl dirt

f 3/3/1 2/2/1 1/1/1
f 2/2/1 3/3/1 4/4/1
f 2/2/1 4/4/1 5/5/1
f 5/5/1 4/4/1 6/6/1
f 5/5/1 6/6/1 7/7/1
f 7/7/1 6/6/1 8/8/1
f 8/8/1 6/6/1 9/9/1
f 8/8/1 9/9/1 10/10/1
f 8/8/1 10/10/1 11/11/1

usemtl concreteSmooth

f 14/14/2 13/13/2 12/12/2
f 13/13/2 14/14/2 15/15/2
f 16/16/3 13/13/3 15/15/3
f 13/13/3 16/16/3 3/17/3
f 17/18/4 14/14/4 12/12/4
f 14/14/4 17/18/4 18/19/4
f 19/22/6 3/21/5 16/20/5
f 3/21/5 19/22/6 4/23/6
f 20/24/7 4/23/6 19/22/6
f 4/23/6 20/24/7 6/25/7
f 21/26/8 6/25/7 20/24/7
f 6/25/7 21/26/8 9/27/8
f 22/28/9 9/27/8 21/26/8
f 9/27/8 22/28/9 10/29/9
f 23/30/10 10/29/9 22/28/9
f 10/29/9 23/30/10 11/31/10
f 24/32/11 11/31/10 23/30/10
f 11/31/10 24/32/11 8/33/11
f 24/36/12 17/35/12 8/34/12
f 17/35/12 24/36/12 18/37/12
f 26/40/12 7/39/12 25/38/12
f 7/39/12 26/40/12 27/41/12
f 26/40/3 1/43/3 28/42/3
f 1/43/3 26/40/3 25/44/3
f 1/33/13 29/45/14 28/32/13
f 29/45/14 1/33/13 2/46/14
f 5/47/15 29/45/14 2/46/14
f 29/45/14 5/47/15 30/48/15
f 7/29/16 30/48/15 5/47/15
f 30/48/15 7/29/16 27/28/16

usemtl concrete

f 14/51/1 16/50/1 15/49/1
f 16/50/1 14/51/1 19/52/1
f 19/52/1 14/51/1 20/53/1
f 20/53/1 14/51/1 21/54/1
f 21/54/1 14/51/1 22/55/1
f 22/55/1 14/51/1 23/56/1
f 23/56/1 14/51/1 24/57/1
f 24/57/1 14/51/1 18/58/1
f 29/60/1 26/14/1 28/59/1
f 26/14/1 29/60/1 27/61/1
f 27/61/1 29/60/1 30/62/1

g road-dirt-corner




usemtl dirt

f 3/3/1 2/2/1 1/1/1
f 2/2/1 3/3/1 4/4/1
f 2/2/1 4/4/1 5/5/1
f 5/5/1 4/4/1 6/6/1
f 5/5/1 6/6/1 7/7/1
f 7/7/1 6/6/1 8/8/1
f 8/8/1 6/6/1 9/9/1
f 8/8/1 9/9/1 10/10/1
f 8/8/1 10/10/1 11/11/1

usemtl concreteSmooth

f 14/14/2 13/13/2 12/12/2
f 13/13/2 14/14/2 15/15/2
f 16/16/3 13/13/3 15/15/3
f 13/13/3 16/16/3 3/17/3
f 17/18/4 14/14/4 12/12/4
f 14/14/4 17/18/4 18/19/4
f 19/22/6 3/21/5 16/20/5
f 3/21/5 19/22/6 4/23/6
f 20/24/7 4/23/6 19/22/6
f 4/23/6 20/24/7 6/25/7
f 21/26/8 6/25/7 20/24/7
f 6/25/7 21/26/8 9/27/8
f 22/28/9 9/27/8 21/26/8
f 9/27/8 22/28/9 10/29/9
f 23/30/10 10/29/9 22/28/9
f 10/29/9 23/30/10 11/31/10
f 24/32/11 11/31/10 23/30/10
f 11/31/10 24/32/11 8/33/11
f 24/36/12 17/35/12 8/34/12
f 17/35/12 24/36/12 18/37/12
f 26/40/12 7/39/12 25/38/12
f 7/39/12 26/40/12 27/41/12
f 26/40/3 1/43/3 28/42/3
f 1/43/3 26/40/3 25/44/3
f 1/33/13 29/45/14 28/32/13
f 29/45/14 1/33/13 2/46/14
f 5/47/15 29/45/14 2/46/14
f 29/45/14 5/47/15 30/48/15
f 7/29/16 30/48/15 5/47/15
f 30/48/15 7/29/16 27/28/16

usemtl concrete

f 14/51/1 16/50/1 15/49/1
f 16/50/1 14/51/1 19/52/1
f 19/52/1 14/51/1 20/53/1
f 20/53/1 14/51/1 21/54/1
f 21/54/1 14/51/1 22/55/1
f 22/55/1 14/51/1 23/56/1
f 23/56/1 14/51/1 24/57/1
f 24/57/1 14/51/1 18/58/1
f 29/60/1 26/14/1 28/59/1
f 26/14/1 29/60/1 27/61/1
f 27/61/1 29/60/1 30/62/1

