# Created by Kenney (www.kenney.nl)

mtllib road-asphalt-corner.mtl

g road-asphalt-corner

v 1 1.405497E-29 0.5 1 1 1
v 0.75 1.405497E-29 0.5669873 1 1 1
v 1 1.804779E-16 -0.5 1 1 1
v 0.6117714 1.743282E-16 -0.4488887 1 1 1
v 0.5669873 1.405497E-29 0.75 1 1 1
v 0.25 1.562984E-16 -0.2990381 1 1 1
v 0.5 1.405497E-29 1 1 1 1
v -0.5 0 1 1 1 1
v -0.06066017 1.276171E-16 -0.06066017 1 1 1
v -0.2990381 9.023893E-17 0.25 1 1 1
v -0.4488887 4.67111E-17 0.6117714 1 1 1
v -1 1.405497E-29 -1 1 1 1
v 1 1.405497E-29 -1 1 1 1
v -1 0.05 -1 1 1 1
v 1 0.05 -1 1 1 1
v 1 0.05 -0.5 1 1 1
v 0.6117714 0.05 -0.4488887 1 1 1
v 0.25 0.05 -0.2990381 1 1 1
v -0.06066017 0.05 -0.06066017 1 1 1
v -0.2990381 0.05 0.25 1 1 1
v -0.4488887 0.05 0.6117714 1 1 1
v -0.5 0.05 1 1 1 1
v -1 0.05 1 1 1 1
v -1 1.405497E-29 1 1 1 1
v 1 0.05 0.5 1 1 1
v 1 0.05 1 1 1 1
v 0.75 0.05 0.5669873 1 1 1
v 0.5 0.05 1 1 1 1
v 0.5669873 0.05 0.75 1 1 1
v 1 1.405497E-29 1 1 1 1

vn 0 1 0
vn 0 0 -1
vn 1 0 0
vn -1 0 0
vn 0.1305262 0 0.9914449
vn 0.258819 0 0.9659258
vn 0.5 0 0.8660254
vn 0.7071068 0 0.7071068
vn 0.8660254 0 0.5
vn 0.9659258 0 0.258819
vn 0.9914449 0 0.1305262
vn 0 0 1
vn -0.258819 0 -0.9659258
vn -0.5 0 -0.8660254
vn -0.8660254 0 -0.5
vn -0.9659258 0 -0.258819

vt 1 -6.578179E-08
vt 1.066987 -0.2500001
vt 6.578194E-08 -3.042011E-14
vt 0.0511113 -0.3882286
vt 1.25 -0.4330128
vt 0.2009619 -0.75
vt 1.5 -0.5000001
vt 1.5 -1.5
vt 0.4393398 -1.06066
vt 0.75 -1.299038
vt 1.111771 -1.448889
vt 3 -11.45
vt 5 -11.45
vt 3 -11.5
vt 5 -11.5
vt 5.5 -11.5
vt 5.5 -11.45
vt 6 -12
vt 6 -12.5
vt 4 -12
vt 5.611772 -12.55111
vt 5.25 -12.70096
vt 4.93934 -12.93934
vt 4.700962 -13.25
vt 4.551111 -13.61177
vt 4.5 -14
vt 4 -14
vt 1 -11.45
vt 1 -11.5
vt 4.447 -11.5
vt 4.447 -11.45
vt 4.839699 -11.5
vt 4.839699 -11.45
vt 5.232398 -11.5
vt 5.232398 -11.45
vt 5.625097 -11.5
vt 5.625097 -11.45
vt 6.017797 -11.5
vt 6.017797 -11.45
vt 6.410495 -11.5
vt 6.410495 -11.45
vt 6.803195 -11.5
vt 6.803195 -11.45
vt 3.5 -13.55
vt 3 -13.55
vt 3.5 -13.5
vt 3 -13.5
vt 6 -13.5
vt 6 -14
vt 5.75 -13.56699
vt 5.5 -14
vt 5.566988 -13.75
vt 5 -13.55
vt 4.5 -13.55
vt 5 -13.5
vt 4.5 -13.5
vt 5 -13
vt 5.05 -13
vt 5.05 -13.5
vt 6.541395 -11.5
vt 6.541395 -11.45
vt 6.279596 -11.45
vt 6.279596 -11.5

usemtl asphalt

f 3/3/1 2/2/1 1/1/1
f 2/2/1 3/3/1 4/4/1
f 2/2/1 4/4/1 5/5/1
f 5/5/1 4/4/1 6/6/1
f 5/5/1 6/6/1 7/7/1
f 7/7/1 6/6/1 8/8/1
f 8/8/1 6/6/1 9/9/1
f 8/8/1 9/9/1 10/10/1
f 8/8/1 10/10/1 11/11/1

usemtl concreteSmooth

f 14/14/2 13/13/2 12/12/2
f 13/13/2 14/14/2 15/15/2
f 16/16/3 13/13/3 15/15/3
f 13/13/3 16/16/3 3/17/3
f 14/20/1 16/19/1 15/18/1
f 16/19/1 14/20/1 17/21/1
f 17/21/1 14/20/1 18/22/1
f 18/22/1 14/20/1 19/23/1
f 19/23/1 14/20/1 20/24/1
f 20/24/1 14/20/1 21/25/1
f 21/25/1 14/20/1 22/26/1
f 22/26/1 14/20/1 23/27/1
f 24/28/4 14/14/4 12/12/4
f 14/14/4 24/28/4 23/29/4
f 17/32/6 3/31/5 16/30/5
f 3/31/5 17/32/6 4/33/6
f 18/34/7 4/33/6 17/32/6
f 4/33/6 18/34/7 6/35/7
f 19/36/8 6/35/7 18/34/7
f 6/35/7 19/36/8 9/37/8
f 20/38/9 9/37/8 19/36/8
f 9/37/8 20/38/9 10/39/9
f 21/40/10 10/39/9 20/38/9
f 10/39/9 21/40/10 11/41/10
f 22/42/11 11/41/10 21/40/10
f 11/41/10 22/42/11 8/43/11
f 22/46/12 24/45/12 8/44/12
f 24/45/12 22/46/12 23/47/12
f 27/50/1 26/49/1 25/48/1
f 26/49/1 27/50/1 28/51/1
f 28/51/1 27/50/1 29/52/1
f 26/55/12 7/54/12 30/53/12
f 7/54/12 26/55/12 28/56/12
f 26/55/3 1/58/3 25/57/3
f 1/58/3 26/55/3 30/59/3
f 1/43/13 27/60/14 25/42/13
f 27/60/14 1/43/13 2/61/14
f 5/62/15 27/60/14 2/61/14
f 27/60/14 5/62/15 29/63/15
f 7/39/16 29/63/15 5/62/15
f 29/63/15 7/39/16 28/38/16

g road-asphalt-corner




usemtl asphalt

f 3/3/1 2/2/1 1/1/1
f 2/2/1 3/3/1 4/4/1
f 2/2/1 4/4/1 5/5/1
f 5/5/1 4/4/1 6/6/1
f 5/5/1 6/6/1 7/7/1
f 7/7/1 6/6/1 8/8/1
f 8/8/1 6/6/1 9/9/1
f 8/8/1 9/9/1 10/10/1
f 8/8/1 10/10/1 11/11/1

usemtl concreteSmooth

f 14/14/2 13/13/2 12/12/2
f 13/13/2 14/14/2 15/15/2
f 16/16/3 13/13/3 15/15/3
f 13/13/3 16/16/3 3/17/3
f 14/20/1 16/19/1 15/18/1
f 16/19/1 14/20/1 17/21/1
f 17/21/1 14/20/1 18/22/1
f 18/22/1 14/20/1 19/23/1
f 19/23/1 14/20/1 20/24/1
f 20/24/1 14/20/1 21/25/1
f 21/25/1 14/20/1 22/26/1
f 22/26/1 14/20/1 23/27/1
f 24/28/4 14/14/4 12/12/4
f 14/14/4 24/28/4 23/29/4
f 17/32/6 3/31/5 16/30/5
f 3/31/5 17/32/6 4/33/6
f 18/34/7 4/33/6 17/32/6
f 4/33/6 18/34/7 6/35/7
f 19/36/8 6/35/7 18/34/7
f 6/35/7 19/36/8 9/37/8
f 20/38/9 9/37/8 19/36/8
f 9/37/8 20/38/9 10/39/9
f 21/40/10 10/39/9 20/38/9
f 10/39/9 21/40/10 11/41/10
f 22/42/11 11/41/10 21/40/10
f 11/41/10 22/42/11 8/43/11
f 22/46/12 24/45/12 8/44/12
f 24/45/12 22/46/12 23/47/12
f 27/50/1 26/49/1 25/48/1
f 26/49/1 27/50/1 28/51/1
f 28/51/1 27/50/1 29/52/1
f 26/55/12 7/54/12 30/53/12
f 7/54/12 26/55/12 28/56/12
f 26/55/3 1/58/3 25/57/3
f 1/58/3 26/55/3 30/59/3
f 1/43/13 27/60/14 25/42/13
f 27/60/14 1/43/13 2/61/14
f 5/62/15 27/60/14 2/61/14
f 27/60/14 5/62/15 29/63/15
f 7/39/16 29/63/15 5/62/15
f 29/63/15 7/39/16 28/38/16

