# Created by Kenney (www.kenney.nl)

mtllib roof-metal-type-b.mtl

g roof-metal-type-b

v 0.5 0 -0.4 1 1 1
v 0.5 1.804779E-16 -0.5 1 1 1
v -0.5 0 -0.4 1 1 1
v -0.5 1.804779E-16 -0.5 1 1 1
v 0.5 1.804779E-16 0.5 1 1 1
v 0.5 0 0.4 1 1 1
v -0.5 1.804779E-16 0.5 1 1 1
v -0.5 0 0.4 1 1 1
v 0.5 0.5 0 1 1 1
v -0.5 0.5 0 1 1 1
v -0.5685822 1.804779E-16 0.5 1 1 1
v -0.5685822 0.5 -7.219114E-16 1 1 1
v 0.5685822 0.5 1.443823E-15 1 1 1
v 0.5685822 1.804779E-16 0.5 1 1 1
v -0.5685822 1.804779E-16 -0.5 1 1 1
v 0.5685822 1.804779E-16 -0.5 1 1 1
v -0.5 0.4 0 1 1 1
v 0.5 0.4 -1.443823E-15 1 1 1

vn 0 -1 0
vn 0 0.7071068 0.7071068
vn 0 -0.7071068 -0.7071068
vn 0 -0.7071068 0.7071068
vn 0 0.7071068 -0.7071068
vn -1 0 0
vn 1 0 0

vt -13.1 -10
vt -13 -10
vt -13.1 -11
vt -13 -11
vt -14 -10
vt -13.9 -10
vt -14 -11
vt -13.9 -11
vt -2 -4
vt -3 -4
vt -2 -3.292893
vt -3 -3.292893
vt -3.068582 -4
vt -3.068582 -3.292893
vt -2.931418 -3.292893
vt -2.931418 -4
vt 9.068583 4.707107
vt 9.068583 4
vt 9 4.707107
vt 9 4
vt 8 4
vt 8 4.707107
vt 7.931418 4
vt 7.931418 4.707107
vt -4 -5
vt -4 -4
vt -3.9 -4.9
vt -3.9 -4.1
vt -1 -2
vt -1 -1.434315
vt 1.94289E-15 -2
vt 1.831868E-15 -1.434315
vt 0.9999999 2.565685
vt 0.9999999 2
vt -3.371644E-08 2.565686
vt -3.885781E-16 2

usemtl concrete

f 3/3/1 2/2/1 1/1/1
f 2/2/1 3/3/1 4/4/1
f 7/7/1 6/6/1 5/5/1
f 6/6/1 7/7/1 8/8/1

usemtl roof

f 9/11/2 7/10/2 5/9/2
f 7/10/2 9/11/2 10/12/2
f 10/12/2 11/13/2 7/10/2
f 11/13/2 10/12/2 12/14/2
f 9/12/2 14/16/2 13/15/2
f 14/16/2 9/12/2 5/10/2
f 13/15/3 14/16/3 9/12/3
f 5/10/3 9/12/3 14/16/3
f 7/16/3 11/10/3 10/15/3
f 12/12/3 10/15/3 11/10/3
f 4/16/4 10/15/4 15/10/4
f 12/12/4 15/10/4 10/15/4
f 10/19/5 15/18/5 12/17/5
f 15/18/5 10/19/5 4/20/5
f 10/19/5 2/21/5 4/20/5
f 2/21/5 10/19/5 9/22/5
f 9/22/5 16/23/5 2/21/5
f 16/23/5 9/22/5 13/24/5
f 13/15/4 9/12/4 16/16/4
f 2/10/4 16/16/4 9/12/4

usemtl roof_plates

f 3/27/6 10/26/6 4/25/6
f 10/26/6 3/27/6 17/28/6
f 8/27/6 10/26/6 17/28/6
f 10/26/6 8/27/6 7/25/6
f 9/26/7 6/27/7 18/28/7
f 6/27/7 9/26/7 5/25/7
f 9/26/7 1/27/7 2/25/7
f 1/27/7 9/26/7 18/28/7
f 8/31/3 18/30/3 6/29/3
f 18/30/3 8/31/3 17/32/3
f 17/35/4 1/34/4 18/33/4
f 1/34/4 17/35/4 3/36/4

g roof-metal-type-b




usemtl concrete

f 3/3/1 2/2/1 1/1/1
f 2/2/1 3/3/1 4/4/1
f 7/7/1 6/6/1 5/5/1
f 6/6/1 7/7/1 8/8/1

usemtl roof

f 9/11/2 7/10/2 5/9/2
f 7/10/2 9/11/2 10/12/2
f 10/12/2 11/13/2 7/10/2
f 11/13/2 10/12/2 12/14/2
f 9/12/2 14/16/2 13/15/2
f 14/16/2 9/12/2 5/10/2
f 13/15/3 14/16/3 9/12/3
f 5/10/3 9/12/3 14/16/3
f 7/16/3 11/10/3 10/15/3
f 12/12/3 10/15/3 11/10/3
f 4/16/4 10/15/4 15/10/4
f 12/12/4 15/10/4 10/15/4
f 10/19/5 15/18/5 12/17/5
f 15/18/5 10/19/5 4/20/5
f 10/19/5 2/21/5 4/20/5
f 2/21/5 10/19/5 9/22/5
f 9/22/5 16/23/5 2/21/5
f 16/23/5 9/22/5 13/24/5
f 13/15/4 9/12/4 16/16/4
f 2/10/4 16/16/4 9/12/4

usemtl roof_plates

f 3/27/6 10/26/6 4/25/6
f 10/26/6 3/27/6 17/28/6
f 8/27/6 10/26/6 17/28/6
f 10/26/6 8/27/6 7/25/6
f 9/26/7 6/27/7 18/28/7
f 6/27/7 9/26/7 5/25/7
f 9/26/7 1/27/7 2/25/7
f 1/27/7 9/26/7 18/28/7
f 8/31/3 18/30/3 6/29/3
f 18/30/3 8/31/3 17/32/3
f 17/35/4 1/34/4 18/33/4
f 1/34/4 17/35/4 3/36/4

