# Created by Kenney (www.kenney.nl)

mtllib roof-metal-type-a.mtl

g roof-metal-type-a

v 0.5 1.804779E-16 -0.5 1 1 1
v -0.5 1.804779E-16 -0.5 1 1 1
v 0.5 0 -0.4 1 1 1
v -0.5 0 -0.4 1 1 1
v 0.5 0 0.4 1 1 1
v -0.5 0 0.4 1 1 1
v 0.5 1.804779E-16 0.5 1 1 1
v -0.5 1.804779E-16 0.5 1 1 1
v 0.5 0.5 0 1 1 1
v -0.5 0.5 0 1 1 1
v -0.5685822 1.804779E-16 0.5 1 1 1
v -0.5685822 0.5 0 1 1 1
v -0.5 0.4 0 1 1 1
v 0.5 0.4 -1.443823E-15 1 1 1
v 0.5685822 0.5 1.804779E-15 1 1 1
v 0.5685822 1.804779E-16 0.5 1 1 1
v -0.5685822 1.804779E-16 -0.5 1 1 1
v 0.5685822 1.804779E-16 -0.5 1 1 1

vn 0 -1 0
vn 0 0.7071068 0.7071068
vn -1 0 0
vn 1 0 0
vn 0 -0.7071068 -0.7071068
vn 0 -0.7071068 0.7071068
vn 0 0.7071068 -0.7071068

vt -13 -10
vt -13 -11
vt -13.1 -10
vt -13.1 -11
vt -13.9 -10
vt -13.9 -11
vt -14 -10
vt -14 -11
vt -2 -4
vt -3 -4
vt -2 -3.292893
vt -3 -3.292893
vt -3.068582 -4
vt -3.068582 -3.292893
vt -4 -5
vt -4 -4
vt -3.9 -4.9
vt -3.9 -4.1
vt -2.931418 -3.292893
vt -2.931418 -4
vt 9.068583 4
vt 9 4
vt 9.068583 4.707107
vt 9 4.707107
vt 8 4
vt 8 4.707107
vt 7.931418 4
vt 7.931418 4.707107
vt -1 -2
vt -1 -1.434315
vt 1.998401E-15 -2
vt 1.887379E-15 -1.434315
vt 0.9999999 2.565685
vt 0.9999999 2
vt -3.371644E-08 2.565686
vt -3.885781E-16 2

usemtl concrete

f 3/3/1 2/2/1 1/1/1
f 2/2/1 3/3/1 4/4/1
f 7/7/1 6/6/1 5/5/1
f 6/6/1 7/7/1 8/8/1

usemtl roof_plates

f 9/11/2 8/10/2 7/9/2
f 8/10/2 9/11/2 10/12/2
f 10/12/2 11/13/2 8/10/2
f 11/13/2 10/12/2 12/14/2
f 4/17/3 10/16/3 2/15/3
f 10/16/3 4/17/3 13/18/3
f 6/17/3 10/16/3 13/18/3
f 10/16/3 6/17/3 8/15/3
f 9/16/4 5/17/4 14/18/4
f 5/17/4 9/16/4 7/15/4
f 9/16/4 3/17/4 1/15/4
f 3/17/4 9/16/4 14/18/4
f 9/12/2 16/20/2 15/19/2
f 16/20/2 9/12/2 7/10/2
f 15/19/5 16/20/5 9/12/5
f 7/10/5 9/12/5 16/20/5
f 8/20/5 11/10/5 10/19/5
f 12/12/5 10/19/5 11/10/5
f 10/19/6 12/12/6 2/20/6
f 17/10/6 2/20/6 12/12/6
f 12/23/7 2/22/7 17/21/7
f 2/22/7 12/23/7 10/24/7
f 10/24/7 1/25/7 2/22/7
f 1/25/7 10/24/7 9/26/7
f 9/26/7 18/27/7 1/25/7
f 18/27/7 9/26/7 15/28/7
f 15/19/6 9/12/6 18/20/6
f 1/10/6 18/20/6 9/12/6
f 6/31/5 14/30/5 5/29/5
f 14/30/5 6/31/5 13/32/5
f 13/35/6 3/34/6 14/33/6
f 3/34/6 13/35/6 4/36/6

g roof-metal-type-a




usemtl concrete

f 3/3/1 2/2/1 1/1/1
f 2/2/1 3/3/1 4/4/1
f 7/7/1 6/6/1 5/5/1
f 6/6/1 7/7/1 8/8/1

usemtl roof_plates

f 9/11/2 8/10/2 7/9/2
f 8/10/2 9/11/2 10/12/2
f 10/12/2 11/13/2 8/10/2
f 11/13/2 10/12/2 12/14/2
f 4/17/3 10/16/3 2/15/3
f 10/16/3 4/17/3 13/18/3
f 6/17/3 10/16/3 13/18/3
f 10/16/3 6/17/3 8/15/3
f 9/16/4 5/17/4 14/18/4
f 5/17/4 9/16/4 7/15/4
f 9/16/4 3/17/4 1/15/4
f 3/17/4 9/16/4 14/18/4
f 9/12/2 16/20/2 15/19/2
f 16/20/2 9/12/2 7/10/2
f 15/19/5 16/20/5 9/12/5
f 7/10/5 9/12/5 16/20/5
f 8/20/5 11/10/5 10/19/5
f 12/12/5 10/19/5 11/10/5
f 10/19/6 12/12/6 2/20/6
f 17/10/6 2/20/6 12/12/6
f 12/23/7 2/22/7 17/21/7
f 2/22/7 12/23/7 10/24/7
f 10/24/7 1/25/7 2/22/7
f 1/25/7 10/24/7 9/26/7
f 9/26/7 18/27/7 1/25/7
f 18/27/7 9/26/7 15/28/7
f 15/19/6 9/12/6 18/20/6
f 1/10/6 18/20/6 9/12/6
f 6/31/5 14/30/5 5/29/5
f 14/30/5 6/31/5 13/32/5
f 13/35/6 3/34/6 14/33/6
f 3/34/6 13/35/6 4/36/6

