# Created by Kenney (www.kenney.nl)

mtllib scaffolding-poles.mtl

g scaffolding-poles

v -0.43 1 -0.5 1 1 1
v -0.43 1 -0.43 1 1 1
v -0.5 1 -0.5 1 1 1
v -0.5 1 -0.43 1 1 1
v -0.43 0 -0.43 1 1 1
v -0.43 0 -0.5 1 1 1
v -0.5 0 -0.43 1 1 1
v -0.5 0 -0.5 1 1 1
v 0.5 0 -0.5 1 1 1
v 0.5 0 -0.43 1 1 1
v 0.5 1 -0.5 1 1 1
v 0.5 1 -0.43 1 1 1
v 0.43 0 -0.43 1 1 1
v 0.43 0 -0.5 1 1 1
v 0.43 1 -0.43 1 1 1
v 0.43 1 -0.5 1 1 1
v 0.43 0 0.43 1 1 1
v 0.43 0 0.5 1 1 1
v 0.5 0 0.43 1 1 1
v 0.5 0 0.5 1 1 1
v 0.5 1 0.5 1 1 1
v 0.5 1 0.43 1 1 1
v 0.43 1 0.5 1 1 1
v 0.43 1 0.43 1 1 1
v -0.5 1 0.43 1 1 1
v -0.43 1 0.43 1 1 1
v -0.5 1 0.5 1 1 1
v -0.43 1 0.5 1 1 1
v -0.43 0 0.43 1 1 1
v -0.43 0 0.5 1 1 1
v -0.5 0 0.43 1 1 1
v -0.5 0 0.5 1 1 1

vn 0 1 0
vn 0 -1 0
vn 0 0 -1
vn -1 0 0
vn 0 0 1
vn 1 0 0
vn 1 0 1.192093E-07
vn -1 0 -1.192093E-07
vn -1.192093E-07 0 1
vn 1.192093E-07 0 -1
vn 1 0 -6.228351E-14
vn 6.228351E-14 0 1
vn -6.228351E-14 0 -1
vn -1 0 6.228351E-14
vn 1 0 -1.192093E-07
vn -1 0 1.192093E-07
vn 1.192093E-07 0 1
vn -1.192093E-07 0 -1

vt 8.925876 -2.622971
vt 8.925876 -2.552971
vt 8.995876 -2.622971
vt 8.995876 -2.552971
vt -8.925876 -2.552971
vt -8.925876 -2.622971
vt -8.995876 -2.552971
vt -8.995876 -2.622971
vt 8.995876 0
vt 8.925876 0
vt 8.995876 1
vt 8.925876 1
vt -2.622971 0
vt -2.622971 1
vt -2.552971 0
vt -2.552971 1
vt -8.925876 0
vt -8.995876 0
vt -8.925876 1
vt -8.995876 1
vt 2.622971 1
vt 2.622971 0
vt 2.552971 1
vt 2.552971 0

usemtl metal

f 3/3/1 2/2/1 1/1/1
f 2/2/1 3/3/1 4/4/1
f 7/7/2 6/6/2 5/5/2
f 6/6/2 7/7/2 8/8/2
f 3/11/3 6/10/3 8/9/3
f 6/10/3 3/11/3 1/12/3
f 7/15/4 3/14/4 8/13/4
f 3/14/4 7/15/4 4/16/4
f 2/19/5 7/18/5 5/17/5
f 7/18/5 2/19/5 4/20/5
f 2/23/6 6/22/6 1/21/6
f 6/22/6 2/23/6 5/24/6
f 11/11/7 10/10/7 9/9/7
f 10/10/7 11/11/7 12/12/7
f 14/7/2 10/6/2 13/5/2
f 10/6/2 14/7/2 9/8/2
f 15/19/8 14/18/8 13/17/8
f 14/18/8 15/19/8 16/20/8
f 11/3/1 15/2/1 12/1/1
f 15/2/1 11/3/1 16/4/1
f 15/23/9 10/22/9 12/21/9
f 10/22/9 15/23/9 13/24/9
f 14/15/10 11/14/10 9/13/10
f 11/14/10 14/15/10 16/16/10
f 19/7/2 18/6/2 17/5/2
f 18/6/2 19/7/2 20/8/2
f 19/15/11 21/14/11 20/13/11
f 21/14/11 19/15/11 22/16/11
f 21/11/12 18/10/12 20/9/12
f 18/10/12 21/11/12 23/12/12
f 24/19/13 19/18/13 17/17/13
f 19/18/13 24/19/13 22/20/13
f 21/3/1 24/2/1 23/1/1
f 24/2/1 21/3/1 22/4/1
f 24/23/14 18/22/14 23/21/14
f 18/22/14 24/23/14 17/24/14
f 27/3/1 26/2/1 25/1/1
f 26/2/1 27/3/1 28/4/1
f 26/19/15 30/18/15 29/17/15
f 30/18/15 26/19/15 28/20/15
f 30/7/2 31/6/2 29/5/2
f 31/6/2 30/7/2 32/8/2
f 27/11/16 31/10/16 32/9/16
f 31/10/16 27/11/16 25/12/16
f 30/15/17 27/14/17 32/13/17
f 27/14/17 30/15/17 28/16/17
f 26/23/18 31/22/18 25/21/18
f 31/22/18 26/23/18 29/24/18

g scaffolding-poles




usemtl metal

f 3/3/1 2/2/1 1/1/1
f 2/2/1 3/3/1 4/4/1
f 7/7/2 6/6/2 5/5/2
f 6/6/2 7/7/2 8/8/2
f 3/11/3 6/10/3 8/9/3
f 6/10/3 3/11/3 1/12/3
f 7/15/4 3/14/4 8/13/4
f 3/14/4 7/15/4 4/16/4
f 2/19/5 7/18/5 5/17/5
f 7/18/5 2/19/5 4/20/5
f 2/23/6 6/22/6 1/21/6
f 6/22/6 2/23/6 5/24/6
f 11/11/7 10/10/7 9/9/7
f 10/10/7 11/11/7 12/12/7
f 14/7/2 10/6/2 13/5/2
f 10/6/2 14/7/2 9/8/2
f 15/19/8 14/18/8 13/17/8
f 14/18/8 15/19/8 16/20/8
f 11/3/1 15/2/1 12/1/1
f 15/2/1 11/3/1 16/4/1
f 15/23/9 10/22/9 12/21/9
f 10/22/9 15/23/9 13/24/9
f 14/15/10 11/14/10 9/13/10
f 11/14/10 14/15/10 16/16/10
f 19/7/2 18/6/2 17/5/2
f 18/6/2 19/7/2 20/8/2
f 19/15/11 21/14/11 20/13/11
f 21/14/11 19/15/11 22/16/11
f 21/11/12 18/10/12 20/9/12
f 18/10/12 21/11/12 23/12/12
f 24/19/13 19/18/13 17/17/13
f 19/18/13 24/19/13 22/20/13
f 21/3/1 24/2/1 23/1/1
f 24/2/1 21/3/1 22/4/1
f 24/23/14 18/22/14 23/21/14
f 18/22/14 24/23/14 17/24/14
f 27/3/1 26/2/1 25/1/1
f 26/2/1 27/3/1 28/4/1
f 26/19/15 30/18/15 29/17/15
f 30/18/15 26/19/15 28/20/15
f 30/7/2 31/6/2 29/5/2
f 31/6/2 30/7/2 32/8/2
f 27/11/16 31/10/16 32/9/16
f 31/10/16 27/11/16 25/12/16
f 30/15/17 27/14/17 32/13/17
f 27/14/17 30/15/17 28/16/17
f 26/23/18 31/22/18 25/21/18
f 31/22/18 26/23/18 29/24/18

