# Created by Kenney (www.kenney.nl)

mtllib tree-park-large.mtl

g tree-park-large

v 8.013217E-15 0.1 -0.52 1 1 1
v 8.013217E-15 1.46 -0.52 1 1 1
v 2.887646E-16 0.1 4.331468E-16 1 1 1
v 2.887646E-16 1.46 4.331468E-16 1 1 1
v -7.435688E-15 0.1 0.52 1 1 1
v -7.435688E-15 1.46 0.52 1 1 1
v -0.52 0.1 4.331468E-16 1 1 1
v -0.52 1.46 4.331468E-16 1 1 1
v 0.52 0.1 4.331468E-16 1 1 1
v 0.52 1.46 4.331468E-16 1 1 1
v 0.4 0.2 9.023893E-17 1 1 1
v 0.2828427 0.2 0.2828427 1 1 1
v 0.2828427 0.2 -0.2828427 1 1 1
v 0.269321 0.2 0 1 1 1
v 0.1904387 0.2 -0.1904387 1 1 1
v 0.1904387 0.2 0.1904387 1 1 1
v 0 0.2 -0.4 1 1 1
v 0 0.2 -0.269321 1 1 1
v 0 0.2 0.4 1 1 1
v 0 0.2 0.269321 1 1 1
v -0.1904387 0.2 0.1904387 1 1 1
v -0.2828427 0.2 -0.2828427 1 1 1
v -0.2828427 0.2 0.2828427 1 1 1
v -0.1904387 0.2 -0.1904387 1 1 1
v -0.269321 0.2 0 1 1 1
v -0.4 0.2 0 1 1 1
v -0.4 0 0 1 1 1
v -0.2828427 0 0.2828427 1 1 1
v 0.4 0 9.023893E-17 1 1 1
v 0.2828427 0 0.2828427 1 1 1
v -0.2828427 0 -0.2828427 1 1 1
v 0 0 0.4 1 1 1
v 0 0.1 0.269321 1 1 1
v 0.1904387 0.1 0.1904387 1 1 1
v 0.269321 0.1 0 1 1 1
v 0.1904387 0.1 -0.1904387 1 1 1
v 0 0.1 -0.269321 1 1 1
v -0.1904387 0.1 -0.1904387 1 1 1
v -0.269321 0.1 0 1 1 1
v -0.1904387 0.1 0.1904387 1 1 1
v 0 0 -0.4 1 1 1
v 0.2828427 0 -0.2828427 1 1 1

vn -1 0 0
vn 1 0 0
vn 0 0 -1
vn 0 0 1
vn 0 1 0
vn -0.7071068 0 0.7071068
vn 0.7071068 0 0.7071068
vn -0.7071068 0 -0.7071068
vn 0.7071068 0 -0.7071068
vn 0 -1 0

vt -0.8842353 0
vt -0.8842349 0.9840004
vt -0.5079998 0
vt -0.5079995 0.9840004
vt -0.1317644 0
vt -0.1317641 0.9840004
vt -9.918507 -0.5211104
vt -9.797342 -0.228594
vt -9.797342 -0.8136268
vt -9.783359 -0.5211104
vt -9.701778 -0.7180624
vt -9.701778 -0.3241583
vt -9.504827 -0.934791
vt -9.504827 -0.7996426
vt -9.504827 -0.1074298
vt -9.504827 -0.2425782
vt -9.307875 -0.3241584
vt -9.21231 -0.8136268
vt -9.21231 -0.228594
vt -9.307875 -0.7180625
vt -9.226295 -0.5211104
vt -9.091146 -0.5211104
vt 19.45923 -8.379638
vt 19.45923 -8.179638
vt 19.85193 -8.379638
vt 19.85193 -8.179638
vt 7.249735 -8.06902
vt 7.249735 -8.26902
vt 6.867051 -8.06902
vt 6.867051 -8.26902
vt 5.306271 -8.26902
vt 5.306271 -8.06902
vt 5.688954 -8.26902
vt 5.688954 -8.06902
vt 6.464336 -8.26902
vt 6.081653 -8.26902
vt 6.464336 -8.06902
vt 6.081653 -8.06902
vt 6.857036 -8.26902
vt 6.474352 -8.26902
vt 6.857036 -8.06902
vt 6.474352 -8.06902
vt 7.804196 -8.26902
vt 7.539791 -8.26902
vt 7.804196 -8.169021
vt 7.539791 -8.169021
vt 7.275386 -8.169021
vt 7.275386 -8.26902
vt 7.010981 -8.169021
vt 7.010981 -8.26902
vt 6.746575 -8.26902
vt 6.746575 -8.169021
vt 6.48217 -8.26902
vt 6.48217 -8.169021
vt 6.217765 -8.169021
vt 6.217765 -8.26902
vt 5.953359 -8.169021
vt 5.953359 -8.26902
vt 5.688954 -8.169021
vt 8.198419 -8.379638
vt 7.815735 -8.379638
vt 8.198419 -8.179638
vt 7.815735 -8.179638
vt 7.423036 -8.379638
vt 7.423036 -8.179638
vt 7.040353 -8.179638
vt 7.040353 -8.379638
vt 5.911041 -0.5108082
vt 5.789877 -0.8033244
vt 5.789877 -0.2182919
vt 5.497361 -0.09712771
vt 5.497361 -0.9244885
vt 5.204845 -0.2182919
vt 5.204845 -0.8033243
vt 5.083681 -0.5108081
vt 5.551291 11.87712
vt 5.789339 11.77852
vt 5.313242 11.77852
vt 5.21464 11.54047
vt 5.887942 11.54047
vt 5.313242 11.30243
vt 5.789339 11.30243
vt 5.551291 11.20382

usemtl treeA

f 3/3/1 2/2/1 1/1/1
f 2/2/1 3/3/1 4/4/1
f 4/4/1 3/3/1 5/5/1
f 4/4/1 5/5/1 6/6/1
f 1/1/2 2/2/2 3/3/2
f 4/4/2 3/3/2 2/2/2
f 5/5/2 3/3/2 4/4/2
f 6/6/2 5/5/2 4/4/2
f 8/6/3 3/3/3 7/5/3
f 3/3/3 8/6/3 9/1/3
f 9/1/3 8/6/3 10/2/3
f 10/2/3 8/6/3 4/4/3
f 7/5/4 3/3/4 8/6/4
f 9/1/4 8/6/4 3/3/4
f 10/2/4 8/6/4 9/1/4
f 4/4/4 8/6/4 10/2/4

usemtl concreteSmooth

f 13/9/5 12/8/5 11/7/5
f 12/8/5 13/9/5 14/10/5
f 14/10/5 13/9/5 15/11/5
f 16/12/5 12/8/5 14/10/5
f 15/11/5 13/9/5 17/13/5
f 15/11/5 17/13/5 18/14/5
f 12/8/5 16/12/5 19/15/5
f 19/15/5 16/12/5 20/16/5
f 19/15/5 20/16/5 21/17/5
f 18/14/5 17/13/5 22/18/5
f 19/15/5 21/17/5 23/19/5
f 18/14/5 22/18/5 24/20/5
f 23/19/5 21/17/5 25/21/5
f 24/20/5 22/18/5 25/21/5
f 23/19/5 25/21/5 22/18/5
f 23/19/5 22/18/5 26/22/5
f 28/25/6 26/24/1 27/23/1
f 26/24/1 28/25/6 23/26/6
f 12/29/7 29/28/2 11/27/2
f 29/28/2 12/29/7 30/30/7
f 27/33/1 22/32/8 31/31/8
f 22/32/8 27/33/1 26/34/1
f 19/37/4 28/36/6 32/35/4
f 28/36/6 19/37/4 23/38/6
f 12/41/7 32/40/4 30/39/7
f 32/40/4 12/41/7 19/42/4
f 20/45/3 34/44/8 33/43/3
f 34/44/8 20/45/3 16/46/8
f 14/47/1 34/44/8 16/46/8
f 34/44/8 14/47/1 35/48/1
f 15/49/6 35/48/1 14/47/1
f 35/48/1 15/49/6 36/50/6
f 15/49/6 37/51/4 36/50/6
f 37/51/4 15/49/6 18/52/4
f 18/52/4 38/53/7 37/51/4
f 38/53/7 18/52/4 24/54/7
f 25/55/2 38/53/7 24/54/7
f 38/53/7 25/55/2 39/56/2
f 21/57/9 39/56/2 25/55/2
f 39/56/2 21/57/9 40/58/9
f 21/57/9 33/33/3 40/58/9
f 33/33/3 21/57/9 20/59/3
f 22/62/8 41/61/3 31/60/8
f 41/61/3 22/62/8 17/63/3
f 17/63/3 42/64/9 41/61/3
f 42/64/9 17/63/3 13/65/9
f 11/66/2 42/64/9 13/65/9
f 42/64/9 11/66/2 29/67/2
f 30/70/10 42/69/10 29/68/10
f 42/69/10 30/70/10 32/71/10
f 42/69/10 32/71/10 41/72/10
f 41/72/10 32/71/10 28/73/10
f 41/72/10 28/73/10 31/74/10
f 31/74/10 28/73/10 27/75/10

usemtl dirt

f 36/78/5 34/77/5 35/76/5
f 34/77/5 36/78/5 37/79/5
f 34/77/5 37/79/5 33/80/5
f 33/80/5 37/79/5 38/81/5
f 33/80/5 38/81/5 40/82/5
f 40/82/5 38/81/5 39/83/5

g tree-park-large




usemtl treeA

f 3/3/1 2/2/1 1/1/1
f 2/2/1 3/3/1 4/4/1
f 4/4/1 3/3/1 5/5/1
f 4/4/1 5/5/1 6/6/1
f 1/1/2 2/2/2 3/3/2
f 4/4/2 3/3/2 2/2/2
f 5/5/2 3/3/2 4/4/2
f 6/6/2 5/5/2 4/4/2
f 8/6/3 3/3/3 7/5/3
f 3/3/3 8/6/3 9/1/3
f 9/1/3 8/6/3 10/2/3
f 10/2/3 8/6/3 4/4/3
f 7/5/4 3/3/4 8/6/4
f 9/1/4 8/6/4 3/3/4
f 10/2/4 8/6/4 9/1/4
f 4/4/4 8/6/4 10/2/4

usemtl concreteSmooth

f 13/9/5 12/8/5 11/7/5
f 12/8/5 13/9/5 14/10/5
f 14/10/5 13/9/5 15/11/5
f 16/12/5 12/8/5 14/10/5
f 15/11/5 13/9/5 17/13/5
f 15/11/5 17/13/5 18/14/5
f 12/8/5 16/12/5 19/15/5
f 19/15/5 16/12/5 20/16/5
f 19/15/5 20/16/5 21/17/5
f 18/14/5 17/13/5 22/18/5
f 19/15/5 21/17/5 23/19/5
f 18/14/5 22/18/5 24/20/5
f 23/19/5 21/17/5 25/21/5
f 24/20/5 22/18/5 25/21/5
f 23/19/5 25/21/5 22/18/5
f 23/19/5 22/18/5 26/22/5
f 28/25/6 26/24/1 27/23/1
f 26/24/1 28/25/6 23/26/6
f 12/29/7 29/28/2 11/27/2
f 29/28/2 12/29/7 30/30/7
f 27/33/1 22/32/8 31/31/8
f 22/32/8 27/33/1 26/34/1
f 19/37/4 28/36/6 32/35/4
f 28/36/6 19/37/4 23/38/6
f 12/41/7 32/40/4 30/39/7
f 32/40/4 12/41/7 19/42/4
f 20/45/3 34/44/8 33/43/3
f 34/44/8 20/45/3 16/46/8
f 14/47/1 34/44/8 16/46/8
f 34/44/8 14/47/1 35/48/1
f 15/49/6 35/48/1 14/47/1
f 35/48/1 15/49/6 36/50/6
f 15/49/6 37/51/4 36/50/6
f 37/51/4 15/49/6 18/52/4
f 18/52/4 38/53/7 37/51/4
f 38/53/7 18/52/4 24/54/7
f 25/55/2 38/53/7 24/54/7
f 38/53/7 25/55/2 39/56/2
f 21/57/9 39/56/2 25/55/2
f 39/56/2 21/57/9 40/58/9
f 21/57/9 33/33/3 40/58/9
f 33/33/3 21/57/9 20/59/3
f 22/62/8 41/61/3 31/60/8
f 41/61/3 22/62/8 17/63/3
f 17/63/3 42/64/9 41/61/3
f 42/64/9 17/63/3 13/65/9
f 11/66/2 42/64/9 13/65/9
f 42/64/9 11/66/2 29/67/2
f 30/70/10 42/69/10 29/68/10
f 42/69/10 30/70/10 32/71/10
f 42/69/10 32/71/10 41/72/10
f 41/72/10 32/71/10 28/73/10
f 41/72/10 28/73/10 31/74/10
f 31/74/10 28/73/10 27/75/10

usemtl dirt

f 36/78/5 34/77/5 35/76/5
f 34/77/5 36/78/5 37/79/5
f 34/77/5 37/79/5 33/80/5
f 33/80/5 37/79/5 38/81/5
f 33/80/5 38/81/5 40/82/5
f 40/82/5 38/81/5 39/83/5

