# Created by Kenney (www.kenney.nl)

mtllib tree-park-pine-large.mtl

g tree-park-pine-large

v 9.240466E-15 0.1 -0.52 1 1 1
v 9.240466E-15 1.46 -0.52 1 1 1
v 0 0.1 7.219114E-17 1 1 1
v 0 1.46 7.219114E-17 1 1 1
v -6.93035E-15 0.1 0.52 1 1 1
v -6.93035E-15 1.46 0.52 1 1 1
v -0.52 0.1 7.219114E-17 1 1 1
v -0.52 1.46 7.219114E-17 1 1 1
v 0.52 0.1 7.219114E-17 1 1 1
v 0.52 1.46 7.219114E-17 1 1 1
v 0.4 0 0 1 1 1
v 0.4 0.2 0 1 1 1
v 0.2828427 0 -0.2828427 1 1 1
v 0.2828427 0.2 -0.2828427 1 1 1
v 0 0.2 -0.4 1 1 1
v 0 0 -0.4 1 1 1
v -0.2828427 0.2 -0.2828427 1 1 1
v -0.2828427 0 -0.2828427 1 1 1
v -0.4 0 0 1 1 1
v -0.4 0.2 0 1 1 1
v -0.2828427 0 0.2828427 1 1 1
v -0.2828427 0.2 0.2828427 1 1 1
v 0 0.2 0.269321 1 1 1
v -0.1904387 0.2 0.1904387 1 1 1
v 0 0.1 0.269321 1 1 1
v -0.1904387 0.1 0.1904387 1 1 1
v -0.269321 0.1 0 1 1 1
v -0.269321 0.2 0 1 1 1
v -0.1904387 0.1 -0.1904387 1 1 1
v -0.1904387 0.2 -0.1904387 1 1 1
v 0 0.2 -0.269321 1 1 1
v 0 0.1 -0.269321 1 1 1
v 0.1904387 0.2 -0.1904387 1 1 1
v 0.1904387 0.1 -0.1904387 1 1 1
v 0.269321 0.1 0 1 1 1
v 0.269321 0.2 0 1 1 1
v 0.1904387 0.1 0.1904387 1 1 1
v 0.1904387 0.2 0.1904387 1 1 1
v 0.2828427 0.2 0.2828427 1 1 1
v 0.2828427 0 0.2828427 1 1 1
v 0 0 0.4 1 1 1
v 0 0.2 0.4 1 1 1

vn -1 0 0
vn 1 0 0
vn 0 0 -1
vn 0 0 1
vn 0.7071068 0 -0.7071068
vn -0.7071068 0 -0.7071068
vn -0.7071068 0 0.7071068
vn 0.7071068 0 0.7071068
vn 0 1 0
vn 0 -1 0

vt -0.8842353 -3.386917E-24
vt -0.8842349 0.9840004
vt -0.5079998 -1.945809E-24
vt -0.5079995 0.9840004
vt -0.1317644 -5.047016E-25
vt -0.1317641 0.9840004
vt 7.040353 -8.379638
vt 7.040353 -8.179638
vt 7.423036 -8.379638
vt 7.423036 -8.179638
vt 7.815735 -8.179638
vt 7.815735 -8.379638
vt 8.198419 -8.179638
vt 8.198419 -8.379638
vt 19.45923 -8.379638
vt 19.45923 -8.179638
vt 19.85193 -8.379638
vt 19.85193 -8.179638
vt 5.688954 -8.169021
vt 5.953359 -8.169021
vt 5.688954 -8.26902
vt 5.953359 -8.26902
vt 6.217765 -8.26902
vt 6.217765 -8.169021
vt 6.48217 -8.26902
vt 6.48217 -8.169021
vt 6.746575 -8.169021
vt 6.746575 -8.26902
vt 7.010981 -8.169021
vt 7.010981 -8.26902
vt 7.275386 -8.26902
vt 7.275386 -8.169021
vt 7.539791 -8.26902
vt 7.539791 -8.169021
vt 7.804196 -8.169021
vt 7.804196 -8.26902
vt 7.249735 -8.06902
vt 7.249735 -8.26902
vt 6.867051 -8.06902
vt 6.867051 -8.26902
vt 6.464336 -8.26902
vt 6.081653 -8.26902
vt 6.464336 -8.06902
vt 6.081653 -8.06902
vt -9.918507 -0.5211104
vt -9.797342 -0.228594
vt -9.797342 -0.8136268
vt -9.783359 -0.5211104
vt -9.701778 -0.7180624
vt -9.701778 -0.3241583
vt -9.504827 -0.934791
vt -9.504827 -0.7996426
vt -9.504827 -0.1074298
vt -9.504827 -0.2425782
vt -9.307875 -0.3241584
vt -9.21231 -0.8136268
vt -9.21231 -0.228594
vt -9.307875 -0.7180625
vt -9.226295 -0.5211104
vt -9.091146 -0.5211104
vt 5.306271 -8.26902
vt 5.306271 -8.06902
vt 5.688954 -8.06902
vt 6.857036 -8.26902
vt 6.474352 -8.26902
vt 6.857036 -8.06902
vt 6.474352 -8.06902
vt 5.911041 -0.5108082
vt 5.789877 -0.8033244
vt 5.789877 -0.2182919
vt 5.497361 -0.09712771
vt 5.497361 -0.9244885
vt 5.204845 -0.2182919
vt 5.204845 -0.8033243
vt 5.083681 -0.5108081
vt 5.551291 11.87712
vt 5.789339 11.77852
vt 5.313242 11.77852
vt 5.21464 11.54047
vt 5.887942 11.54047
vt 5.313242 11.30243
vt 5.789339 11.30243
vt 5.551291 11.20382

usemtl treeB

f 3/3/1 2/2/1 1/1/1
f 2/2/1 3/3/1 4/4/1
f 4/4/1 3/3/1 5/5/1
f 4/4/1 5/5/1 6/6/1
f 1/1/2 2/2/2 3/3/2
f 4/4/2 3/3/2 2/2/2
f 5/5/2 3/3/2 4/4/2
f 6/6/2 5/5/2 4/4/2
f 8/6/3 3/3/3 7/5/3
f 3/3/3 8/6/3 9/1/3
f 9/1/3 8/6/3 10/2/3
f 10/2/3 8/6/3 4/4/3
f 7/5/4 3/3/4 8/6/4
f 9/1/4 8/6/4 3/3/4
f 10/2/4 8/6/4 9/1/4
f 4/4/4 8/6/4 10/2/4

usemtl concreteSmooth

f 13/9/5 12/8/2 11/7/2
f 12/8/2 13/9/5 14/10/5
f 13/9/5 15/11/3 14/10/5
f 15/11/3 13/9/5 16/12/3
f 16/12/3 17/13/6 15/11/3
f 17/13/6 16/12/3 18/14/6
f 21/17/7 20/16/1 19/15/1
f 20/16/1 21/17/7 22/18/7
f 25/21/3 24/20/5 23/19/3
f 24/20/5 25/21/3 26/22/5
f 27/23/2 24/20/5 26/22/5
f 24/20/5 27/23/2 28/24/2
f 29/25/8 28/24/2 27/23/2
f 28/24/2 29/25/8 30/26/8
f 29/25/8 31/27/4 30/26/8
f 31/27/4 29/25/8 32/28/4
f 32/28/4 33/29/7 31/27/4
f 33/29/7 32/28/4 34/30/7
f 35/31/1 33/29/7 34/30/7
f 33/29/7 35/31/1 36/32/1
f 37/33/6 36/32/1 35/31/1
f 36/32/1 37/33/6 38/34/6
f 37/33/6 23/35/3 38/34/6
f 23/35/3 37/33/6 25/36/3
f 39/39/8 11/38/2 12/37/2
f 11/38/2 39/39/8 40/40/8
f 42/43/4 21/42/7 41/41/4
f 21/42/7 42/43/4 22/44/7
f 14/47/9 39/46/9 12/45/9
f 39/46/9 14/47/9 36/48/9
f 36/48/9 14/47/9 33/49/9
f 38/50/9 39/46/9 36/48/9
f 33/49/9 14/47/9 15/51/9
f 33/49/9 15/51/9 31/52/9
f 39/46/9 38/50/9 42/53/9
f 42/53/9 38/50/9 23/54/9
f 42/53/9 23/54/9 24/55/9
f 31/52/9 15/51/9 17/56/9
f 42/53/9 24/55/9 22/57/9
f 31/52/9 17/56/9 30/58/9
f 22/57/9 24/55/9 28/59/9
f 30/58/9 17/56/9 28/59/9
f 22/57/9 28/59/9 17/56/9
f 22/57/9 17/56/9 20/60/9
f 19/21/1 17/62/6 18/61/6
f 17/62/6 19/21/1 20/63/1
f 39/66/8 41/65/4 40/64/8
f 41/65/4 39/66/8 42/67/4
f 40/70/10 13/69/10 11/68/10
f 13/69/10 40/70/10 41/71/10
f 13/69/10 41/71/10 16/72/10
f 16/72/10 41/71/10 21/73/10
f 16/72/10 21/73/10 18/74/10
f 18/74/10 21/73/10 19/75/10

usemtl dirt

f 34/78/9 37/77/9 35/76/9
f 37/77/9 34/78/9 32/79/9
f 37/77/9 32/79/9 25/80/9
f 25/80/9 32/79/9 29/81/9
f 25/80/9 29/81/9 26/82/9
f 26/82/9 29/81/9 27/83/9

g tree-park-pine-large




usemtl treeB

f 3/3/1 2/2/1 1/1/1
f 2/2/1 3/3/1 4/4/1
f 4/4/1 3/3/1 5/5/1
f 4/4/1 5/5/1 6/6/1
f 1/1/2 2/2/2 3/3/2
f 4/4/2 3/3/2 2/2/2
f 5/5/2 3/3/2 4/4/2
f 6/6/2 5/5/2 4/4/2
f 8/6/3 3/3/3 7/5/3
f 3/3/3 8/6/3 9/1/3
f 9/1/3 8/6/3 10/2/3
f 10/2/3 8/6/3 4/4/3
f 7/5/4 3/3/4 8/6/4
f 9/1/4 8/6/4 3/3/4
f 10/2/4 8/6/4 9/1/4
f 4/4/4 8/6/4 10/2/4

usemtl concreteSmooth

f 13/9/5 12/8/2 11/7/2
f 12/8/2 13/9/5 14/10/5
f 13/9/5 15/11/3 14/10/5
f 15/11/3 13/9/5 16/12/3
f 16/12/3 17/13/6 15/11/3
f 17/13/6 16/12/3 18/14/6
f 21/17/7 20/16/1 19/15/1
f 20/16/1 21/17/7 22/18/7
f 25/21/3 24/20/5 23/19/3
f 24/20/5 25/21/3 26/22/5
f 27/23/2 24/20/5 26/22/5
f 24/20/5 27/23/2 28/24/2
f 29/25/8 28/24/2 27/23/2
f 28/24/2 29/25/8 30/26/8
f 29/25/8 31/27/4 30/26/8
f 31/27/4 29/25/8 32/28/4
f 32/28/4 33/29/7 31/27/4
f 33/29/7 32/28/4 34/30/7
f 35/31/1 33/29/7 34/30/7
f 33/29/7 35/31/1 36/32/1
f 37/33/6 36/32/1 35/31/1
f 36/32/1 37/33/6 38/34/6
f 37/33/6 23/35/3 38/34/6
f 23/35/3 37/33/6 25/36/3
f 39/39/8 11/38/2 12/37/2
f 11/38/2 39/39/8 40/40/8
f 42/43/4 21/42/7 41/41/4
f 21/42/7 42/43/4 22/44/7
f 14/47/9 39/46/9 12/45/9
f 39/46/9 14/47/9 36/48/9
f 36/48/9 14/47/9 33/49/9
f 38/50/9 39/46/9 36/48/9
f 33/49/9 14/47/9 15/51/9
f 33/49/9 15/51/9 31/52/9
f 39/46/9 38/50/9 42/53/9
f 42/53/9 38/50/9 23/54/9
f 42/53/9 23/54/9 24/55/9
f 31/52/9 15/51/9 17/56/9
f 42/53/9 24/55/9 22/57/9
f 31/52/9 17/56/9 30/58/9
f 22/57/9 24/55/9 28/59/9
f 30/58/9 17/56/9 28/59/9
f 22/57/9 28/59/9 17/56/9
f 22/57/9 17/56/9 20/60/9
f 19/21/1 17/62/6 18/61/6
f 17/62/6 19/21/1 20/63/1
f 39/66/8 41/65/4 40/64/8
f 41/65/4 39/66/8 42/67/4
f 40/70/10 13/69/10 11/68/10
f 13/69/10 40/70/10 41/71/10
f 13/69/10 41/71/10 16/72/10
f 16/72/10 41/71/10 21/73/10
f 16/72/10 21/73/10 18/74/10
f 18/74/10 21/73/10 19/75/10

usemtl dirt

f 34/78/9 37/77/9 35/76/9
f 37/77/9 34/78/9 32/79/9
f 37/77/9 32/79/9 25/80/9
f 25/80/9 32/79/9 29/81/9
f 25/80/9 29/81/9 26/82/9
f 26/82/9 29/81/9 27/83/9

