# Created by Kenney (www.kenney.nl)

mtllib truck-green-cargo.mtl

g truck-green-cargo

v 0.415 0.7383584 -0.5841052 1 1 1
v 0.415 1.534062E-15 -0.5841052 1 1 1
v 0.415 0.7383584 0.5841052 1 1 1
v 0.415 1.488942E-15 0.5841052 1 1 1
v -0.415 0 0.5841052 1 1 1
v -0.415 0.7383584 0.5841052 1 1 1
v -0.415 0.7383584 -0.5841052 1 1 1
v -0.415 4.511946E-17 -0.5841052 1 1 1

vn 1 0 0
vn 0 0 1
vn 0 1 0
vn -1 0 0
vn 0 0 -1
vn 0 -1 0

vt -2.71085 2
vt -2.71085 1.550713
vt -2 2
vt -2 1.550713
vt 0.3398577 0.09387412
vt 0.3398582 0.3790646
vt 0.6604452 0.09387412
vt 0.6604457 0.3790646
vt -2.711964 2.98778
vt -2.119577 2.987779
vt -2.711964 2.566896
vt -2.119577 2.566895

usemtl truck_alien

f 3/3/1 2/2/1 1/1/1
f 2/2/1 3/3/1 4/4/1
f 4/7/2 6/6/2 5/5/2
f 6/6/2 4/7/2 3/8/2
f 7/11/3 3/10/3 1/9/3
f 3/10/3 7/11/3 6/12/3
f 5/4/4 7/1/4 8/2/4
f 7/1/4 5/4/4 6/3/4
f 7/8/5 2/5/5 8/7/5
f 2/5/5 7/8/5 1/6/5
f 4/10/6 8/11/6 2/9/6
f 8/11/6 4/10/6 5/12/6

g truck-green-cargo




usemtl truck_alien

f 3/3/1 2/2/1 1/1/1
f 2/2/1 3/3/1 4/4/1
f 4/7/2 6/6/2 5/5/2
f 6/6/2 4/7/2 3/8/2
f 7/11/3 3/10/3 1/9/3
f 3/10/3 7/11/3 6/12/3
f 5/4/4 7/1/4 8/2/4
f 7/1/4 5/4/4 6/3/4
f 7/8/5 2/5/5 8/7/5
f 2/5/5 7/8/5 1/6/5
f 4/10/6 8/11/6 2/9/6
f 8/11/6 4/10/6 5/12/6

