# Created by Kenney (www.kenney.nl)

mtllib wall-b-column.mtl

g wall-b-column

v -0.125 1 -1.443823E-15 1 1 1
v -0.125 1 -0.125 1 1 1
v -0.125 1 0.125 1 1 1
v -0.125 0 -1.443823E-15 1 1 1
v -0.125 0 0.125 1 1 1
v -0.125 0 -0.125 1 1 1
v 0.125 1 5.05338E-15 1 1 1
v 0.125 1 0.125 1 1 1
v 0.125 1 -0.125 1 1 1
v -1.443823E-15 1 -0.125 1 1 1
v -1.443823E-15 1 0.125 1 1 1
v 0.125 0 5.05338E-15 1 1 1
v 0.125 0 -0.125 1 1 1
v 0.125 0 0.125 1 1 1
v -1.443823E-15 0 0.125 1 1 1
v -1.443823E-15 0 -0.125 1 1 1

vn 0 1 0
vn 0 -1 0
vn 0 0 -1
vn -1 0 0
vn 1 0 0
vn 0 0 1

vt 4.501864 -10.74914
vt 4.501864 -11.00006
vt 4.501864 -10.49822
vt 4.00002 -10.74913
vt 4.00002 -10.49821
vt 4.00002 -11.00005
vt 4.250942 -11.00006
vt 4.250942 -10.49821
vt 13.125 0
vt 13 0
vt 13.125 1
vt 13 1
vt 14 0
vt 13.875 0
vt 14 1
vt 13.875 1

usemtl concrete

f 3/3/1 2/2/1 1/1/1
f 6/2/2 5/3/2 4/1/2
f 9/6/1 8/5/1 7/4/1
f 8/5/1 9/6/1 10/7/1
f 8/5/1 10/7/1 11/8/1
f 11/8/1 10/7/1 2/2/1
f 11/8/1 2/2/1 3/3/1
f 14/5/2 13/6/2 12/4/2
f 13/6/2 14/5/2 15/8/2
f 13/6/2 15/8/2 16/7/2
f 16/7/2 15/8/2 5/3/2
f 16/7/2 5/3/2 6/2/2

usemtl wall_metal

f 10/11/3 13/10/3 16/9/3
f 13/10/3 10/11/3 9/12/3
f 2/15/3 16/14/3 6/13/3
f 16/14/3 2/15/3 10/16/3
f 4/9/4 2/12/4 6/10/4
f 2/12/4 4/9/4 1/11/4
f 5/13/4 1/16/4 4/14/4
f 1/16/4 5/13/4 3/15/4
f 8/12/5 12/9/5 7/11/5
f 12/9/5 8/12/5 14/10/5
f 11/11/6 5/10/6 15/9/6
f 5/10/6 11/11/6 3/12/6
f 8/15/6 15/14/6 14/13/6
f 15/14/6 8/15/6 11/16/6
f 7/16/5 13/13/5 9/15/5
f 13/13/5 7/16/5 12/14/5

g wall-b-column




usemtl concrete

f 3/3/1 2/2/1 1/1/1
f 6/2/2 5/3/2 4/1/2
f 9/6/1 8/5/1 7/4/1
f 8/5/1 9/6/1 10/7/1
f 8/5/1 10/7/1 11/8/1
f 11/8/1 10/7/1 2/2/1
f 11/8/1 2/2/1 3/3/1
f 14/5/2 13/6/2 12/4/2
f 13/6/2 14/5/2 15/8/2
f 13/6/2 15/8/2 16/7/2
f 16/7/2 15/8/2 5/3/2
f 16/7/2 5/3/2 6/2/2

usemtl wall_metal

f 10/11/3 13/10/3 16/9/3
f 13/10/3 10/11/3 9/12/3
f 2/15/3 16/14/3 6/13/3
f 16/14/3 2/15/3 10/16/3
f 4/9/4 2/12/4 6/10/4
f 2/12/4 4/9/4 1/11/4
f 5/13/4 1/16/4 4/14/4
f 1/16/4 5/13/4 3/15/4
f 8/12/5 12/9/5 7/11/5
f 12/9/5 8/12/5 14/10/5
f 11/11/6 5/10/6 15/9/6
f 5/10/6 11/11/6 3/12/6
f 8/15/6 15/14/6 14/13/6
f 15/14/6 8/15/6 11/16/6
f 7/16/5 13/13/5 9/15/5
f 13/13/5 7/16/5 12/14/5

