# Created by Kenney (www.kenney.nl)

mtllib wall-b-diagonal.mtl

g wall-b-diagonal

v 0.5 1 -0.5 1 1 1
v 0.5 1 0.5 1 1 1
v -0.5 1 0.5 1 1 1
v 0.5 0 0.5 1 1 1
v 0.5 0 -0.5 1 1 1
v -0.5 0 0.5 1 1 1

vn 0 1 0
vn 0 -1 0
vn 0 0 1
vn 1 0 0
vn -0.7071068 0 -0.7071068

vt 4 -11
vt 4 -10
vt 5 -10
vt -14 -10
vt -14 -11
vt -15 -10
vt 12 0
vt 11 0
vt 12 1
vt 11 1
vt 13 1
vt 13 0
vt 15 0
vt 14 0
vt 15 1
vt 14 1

usemtl concrete

f 3/3/1 2/2/1 1/1/1
f 6/6/2 5/5/2 4/4/2

usemtl wall_metal

f 2/9/3 6/8/3 4/7/3
f 6/8/3 2/9/3 3/10/3
f 2/9/4 5/12/4 1/11/4
f 5/12/4 2/9/4 4/7/4
f 3/15/5 5/14/5 6/13/5
f 5/14/5 3/15/5 1/16/5

g wall-b-diagonal




usemtl concrete

f 3/3/1 2/2/1 1/1/1
f 6/6/2 5/5/2 4/4/2

usemtl wall_metal

f 2/9/3 6/8/3 4/7/3
f 6/8/3 2/9/3 3/10/3
f 2/9/4 5/12/4 1/11/4
f 5/12/4 2/9/4 4/7/4
f 3/15/5 5/14/5 6/13/5
f 5/14/5 3/15/5 1/16/5

