# Created by Kenney (www.kenney.nl)

mtllib wall-b-roof-slant.mtl

g wall-b-roof-slant

v -0.5 0 -0.5 1 1 1
v 0.5 0 -0.5 1 1 1
v 0.5 0.5 -0.5 1 1 1
v 0.5 0 0.5 1 1 1
v -0.5 0 0.5 1 1 1
v 0.5 0.5 0.5 1 1 1

vn 0 0 -1
vn 0 0 1
vn 1 0 0
vn -0.4472136 0.8944272 0
vn 0 -1 0

vt 12 1
vt 11 1
vt 11 1.5
vt 10 1
vt 9 1
vt 10 1.5
vt -1 -7
vt 1.332268E-15 -7
vt -1 -8
vt 1.332268E-15 -8
vt -15 -10
vt -15 -11
vt -16 -10
vt -16 -11

usemtl wall_metal

f 3/3/1 2/2/1 1/1/1
f 6/6/2 5/5/2 4/4/2
f 6/6/3 2/2/3 3/3/3
f 2/2/3 6/6/3 4/4/3

usemtl roof_plates

f 1/9/4 6/8/4 3/7/4
f 6/8/4 1/9/4 5/10/4

usemtl concrete

f 5/13/5 2/12/5 4/11/5
f 2/12/5 5/13/5 1/14/5

g wall-b-roof-slant




usemtl wall_metal

f 3/3/1 2/2/1 1/1/1
f 6/6/2 5/5/2 4/4/2
f 6/6/3 2/2/3 3/3/3
f 2/2/3 6/6/3 4/4/3

usemtl roof_plates

f 1/9/4 6/8/4 3/7/4
f 6/8/4 1/9/4 5/10/4

usemtl concrete

f 5/13/5 2/12/5 4/11/5
f 2/12/5 5/13/5 1/14/5

