# Created by Kenney (www.kenney.nl)

mtllib wall-b-open.mtl

g wall-b-open

v 0.5 0 -0.43 1 1 1
v 0.5 0 -0.5 1 1 1
v 0.43 0 -0.43 1 1 1
v 0.43 0 -0.5 1 1 1
v -0.43 0 -0.43 1 1 1
v -0.43 0 -0.5 1 1 1
v -0.5 0 -0.43 1 1 1
v -0.5 0 -0.5 1 1 1
v 0.5 0 0.5 1 1 1
v 0.5 0 0.43 1 1 1
v 0.43 0 0.5 1 1 1
v 0.43 0 0.43 1 1 1
v -0.5 0.83 -0.43 1 1 1
v -0.5 0.83 0.43 1 1 1
v -0.43 0.83 -0.43 1 1 1
v -0.43 0.83 0.43 1 1 1
v -0.43 0.83 -0.5 1 1 1
v -0.43 0.83 0.5 1 1 1
v 0.43 0.83 -0.5 1 1 1
v 0.43 0.83 -0.43 1 1 1
v 0.43 0.83 0.43 1 1 1
v 0.43 0.83 0.5 1 1 1
v 0.5 0.83 -0.43 1 1 1
v 0.5 0.83 0.43 1 1 1
v 0.5 1 -0.5 1 1 1
v 0.5 1 0.5 1 1 1
v -0.5 1 -0.5 1 1 1
v -0.5 1 0.5 1 1 1
v -0.43 0 0.5 1 1 1
v -0.43 0 0.43 1 1 1
v -0.5 0 0.5 1 1 1
v -0.5 0 0.43 1 1 1

vn 0 -1 0
vn 0 1 0
vn -1 0 0
vn 1 0 0
vn 0 0 -1
vn 0 0 1

vt -7 -0.93
vt -7 -1
vt -7.07 -0.93
vt -7.07 -1
vt -7.93 -0.93
vt -7.93 -1
vt -8 -0.93
vt -8 -1
vt -7 1.609823E-15
vt -7 -0.07
vt -7.07 1.609823E-15
vt -7.07 -0.07
vt -8 -0.07
vt -7.93 -0.07
vt -7.93 1.609823E-15
vt -1 -1
vt -1 1.498801E-15
vt 1.498801E-15 -1
vt 1.498801E-15 1.498801E-15
vt -8 1.609823E-15
vt 3.93 0.9999999
vt 3.93 1.83
vt 4 0.9999999
vt 4 1.83
vt 1 1
vt 1 2
vt 1.07 1
vt 1.07 1.83
vt 1.93 1.83
vt 2 2
vt 2 1
vt 1.93 1
vt 3 1
vt 3 1.83
vt 3.07 1
vt 3.07 1.83
vt 3 1
vt 2.93 1
vt 3 1.83
vt 2.93 1.83
vt 2.07 1
vt 2.07 1.83
vt 2 1.83
vt 4 2
vt 3 2
vt 4.07 0.9999999
vt 4.07 1.83
vt 1 1.83
vt 3 2
vt 5 0.9999998
vt 4.93 0.9999998
vt 5 2
vt 4.93 1.83
vt 5 1.83

usemtl concrete

f 3/3/1 2/2/1 1/1/1
f 2/2/1 3/3/1 4/4/1
f 7/7/1 6/6/1 5/5/1
f 6/6/1 7/7/1 8/8/1
f 11/11/1 10/10/1 9/9/1
f 10/10/1 11/11/1 12/12/1
f 15/5/1 14/13/1 13/7/1
f 14/13/1 15/5/1 16/14/1
f 17/6/1 16/14/1 15/5/1
f 17/6/1 18/15/1 16/14/1
f 19/4/1 18/15/1 17/6/1
f 20/3/1 18/15/1 19/4/1
f 21/12/1 18/15/1 20/3/1
f 18/15/1 21/12/1 22/11/1
f 23/1/1 21/12/1 20/3/1
f 21/12/1 23/1/1 24/10/1
f 27/18/2 26/17/2 25/16/2
f 26/17/2 27/18/2 28/19/2
f 31/20/1 30/14/1 29/15/1
f 30/14/1 31/20/1 32/13/1

usemtl wall_metal

f 11/23/3 21/22/3 12/21/3
f 21/22/3 11/23/3 22/24/3
f 10/27/4 26/26/4 9/25/4
f 24/28/4 26/26/4 10/27/4
f 23/29/4 26/26/4 24/28/4
f 23/29/4 25/30/4 26/26/4
f 25/30/4 23/29/4 2/31/4
f 1/32/4 2/31/4 23/29/4
f 3/35/3 19/34/3 4/33/3
f 19/34/3 3/35/3 20/36/3
f 14/39/5 30/38/5 32/37/5
f 30/38/5 14/39/5 16/40/5
f 21/42/5 10/31/5 12/41/5
f 10/31/5 21/42/5 24/43/5
f 31/23/3 14/22/3 32/21/3
f 28/44/3 14/22/3 31/23/3
f 28/44/3 13/36/3 14/22/3
f 27/45/3 13/36/3 28/44/3
f 27/45/3 7/35/3 13/36/3
f 7/35/3 27/45/3 8/33/3
f 15/47/6 7/23/6 5/46/6
f 7/23/6 15/47/6 13/24/6
f 18/48/4 30/27/4 16/28/4
f 30/27/4 18/48/4 29/25/4
f 27/49/5 6/38/5 8/37/5
f 6/38/5 27/49/5 17/40/5
f 17/40/5 27/49/5 19/42/5
f 25/30/5 19/42/5 27/49/5
f 2/31/5 19/42/5 25/30/5
f 19/42/5 2/31/5 4/41/5
f 26/52/6 11/51/6 9/50/6
f 11/51/6 26/52/6 22/53/6
f 22/53/6 26/52/6 18/47/6
f 28/44/6 18/47/6 26/52/6
f 31/23/6 18/47/6 28/44/6
f 18/47/6 31/23/6 29/46/6
f 15/29/4 6/31/4 17/43/4
f 6/31/4 15/29/4 5/32/4
f 23/54/6 3/51/6 1/50/6
f 3/51/6 23/54/6 20/53/6

g wall-b-open




usemtl concrete

f 3/3/1 2/2/1 1/1/1
f 2/2/1 3/3/1 4/4/1
f 7/7/1 6/6/1 5/5/1
f 6/6/1 7/7/1 8/8/1
f 11/11/1 10/10/1 9/9/1
f 10/10/1 11/11/1 12/12/1
f 15/5/1 14/13/1 13/7/1
f 14/13/1 15/5/1 16/14/1
f 17/6/1 16/14/1 15/5/1
f 17/6/1 18/15/1 16/14/1
f 19/4/1 18/15/1 17/6/1
f 20/3/1 18/15/1 19/4/1
f 21/12/1 18/15/1 20/3/1
f 18/15/1 21/12/1 22/11/1
f 23/1/1 21/12/1 20/3/1
f 21/12/1 23/1/1 24/10/1
f 27/18/2 26/17/2 25/16/2
f 26/17/2 27/18/2 28/19/2
f 31/20/1 30/14/1 29/15/1
f 30/14/1 31/20/1 32/13/1

usemtl wall_metal

f 11/23/3 21/22/3 12/21/3
f 21/22/3 11/23/3 22/24/3
f 10/27/4 26/26/4 9/25/4
f 24/28/4 26/26/4 10/27/4
f 23/29/4 26/26/4 24/28/4
f 23/29/4 25/30/4 26/26/4
f 25/30/4 23/29/4 2/31/4
f 1/32/4 2/31/4 23/29/4
f 3/35/3 19/34/3 4/33/3
f 19/34/3 3/35/3 20/36/3
f 14/39/5 30/38/5 32/37/5
f 30/38/5 14/39/5 16/40/5
f 21/42/5 10/31/5 12/41/5
f 10/31/5 21/42/5 24/43/5
f 31/23/3 14/22/3 32/21/3
f 28/44/3 14/22/3 31/23/3
f 28/44/3 13/36/3 14/22/3
f 27/45/3 13/36/3 28/44/3
f 27/45/3 7/35/3 13/36/3
f 7/35/3 27/45/3 8/33/3
f 15/47/6 7/23/6 5/46/6
f 7/23/6 15/47/6 13/24/6
f 18/48/4 30/27/4 16/28/4
f 30/27/4 18/48/4 29/25/4
f 27/49/5 6/38/5 8/37/5
f 6/38/5 27/49/5 17/40/5
f 17/40/5 27/49/5 19/42/5
f 25/30/5 19/42/5 27/49/5
f 2/31/5 19/42/5 25/30/5
f 19/42/5 2/31/5 4/41/5
f 26/52/6 11/51/6 9/50/6
f 11/51/6 26/52/6 22/53/6
f 22/53/6 26/52/6 18/47/6
f 28/44/6 18/47/6 26/52/6
f 31/23/6 18/47/6 28/44/6
f 18/47/6 31/23/6 29/46/6
f 15/29/4 6/31/4 17/43/4
f 6/31/4 15/29/4 5/32/4
f 23/54/6 3/51/6 1/50/6
f 3/51/6 23/54/6 20/53/6

