# Created by Kenney (www.kenney.nl)

mtllib wall-a-column-painted.mtl

g wall-a-column-painted

v 0 0 -0.125 1 1 1
v 0.125 0 -0.125 1 1 1
v 0 1 -0.125 1 1 1
v 0.125 1 -0.125 1 1 1
v 0 0 0.125 1 1 1
v -0.125 0 0.125 1 1 1
v 0 1 0.125 1 1 1
v -0.125 1 0.125 1 1 1
v 0.125 1 -3.609557E-15 1 1 1
v 0.125 0 -3.609557E-15 1 1 1
v 0.125 1 0.125 1 1 1
v 0.125 0 0.125 1 1 1
v -0.125 0 0 1 1 1
v -0.125 1 0 1 1 1
v -0.125 0 -0.125 1 1 1
v -0.125 1 -0.125 1 1 1

vn 0 0 -1
vn 0 0 1
vn 1 0 0
vn -1 0 0
vn 0 1 0
vn 0 -1 0

vt -0.875 0
vt -1 0
vt -0.875 1
vt -1 1
vt 1.349892E-13 1
vt 1.349892E-13 0
vt -0.125 1
vt -0.125 0
vt -2.020606E-14 0
vt -2.020606E-14 1
vt -3.608225E-15 0
vt -3.608225E-15 1
vt 0 0
vt 0 1
vt 4.501864 -10.74914
vt 4.501864 -11.00006
vt 4.501864 -10.49822
vt 4.00002 -11.00005
vt 4.00002 -10.74913
vt 4.250942 -11.00006
vt 4.250942 -10.49821
vt 4.00002 -10.49821

usemtl wall

f 3/3/1 2/2/1 1/1/1
f 2/2/1 3/3/1 4/4/1
f 7/3/2 6/2/2 5/1/2
f 6/2/2 7/3/2 8/4/2
f 9/7/3 2/6/3 4/5/3
f 2/6/3 9/7/3 10/8/3
f 11/4/3 10/1/3 9/3/3
f 10/1/3 11/4/3 12/2/3
f 11/10/2 5/8/2 12/9/2
f 5/8/2 11/10/2 7/7/2
f 6/11/4 14/7/4 13/8/4
f 14/7/4 6/11/4 8/12/4
f 13/1/4 16/4/4 15/2/4
f 16/4/4 13/1/4 14/3/4
f 16/14/1 1/8/1 15/13/1
f 1/8/1 16/14/1 3/7/1

usemtl concrete

f 8/17/5 16/16/5 14/15/5
f 15/16/6 6/17/6 13/15/6
f 3/20/5 9/19/5 4/18/5
f 7/21/5 9/19/5 3/20/5
f 9/19/5 7/21/5 11/22/5
f 7/21/5 3/20/5 16/16/5
f 7/21/5 16/16/5 8/17/5
f 5/21/6 10/19/6 12/22/6
f 1/20/6 10/19/6 5/21/6
f 10/19/6 1/20/6 2/18/6
f 1/20/6 5/21/6 6/17/6
f 1/20/6 6/17/6 15/16/6

g wall-a-column-painted




usemtl wall

f 3/3/1 2/2/1 1/1/1
f 2/2/1 3/3/1 4/4/1
f 7/3/2 6/2/2 5/1/2
f 6/2/2 7/3/2 8/4/2
f 9/7/3 2/6/3 4/5/3
f 2/6/3 9/7/3 10/8/3
f 11/4/3 10/1/3 9/3/3
f 10/1/3 11/4/3 12/2/3
f 11/10/2 5/8/2 12/9/2
f 5/8/2 11/10/2 7/7/2
f 6/11/4 14/7/4 13/8/4
f 14/7/4 6/11/4 8/12/4
f 13/1/4 16/4/4 15/2/4
f 16/4/4 13/1/4 14/3/4
f 16/14/1 1/8/1 15/13/1
f 1/8/1 16/14/1 3/7/1

usemtl concrete

f 8/17/5 16/16/5 14/15/5
f 15/16/6 6/17/6 13/15/6
f 3/20/5 9/19/5 4/18/5
f 7/21/5 9/19/5 3/20/5
f 9/19/5 7/21/5 11/22/5
f 7/21/5 3/20/5 16/16/5
f 7/21/5 16/16/5 8/17/5
f 5/21/6 10/19/6 12/22/6
f 1/20/6 10/19/6 5/21/6
f 10/19/6 1/20/6 2/18/6
f 1/20/6 5/21/6 6/17/6
f 1/20/6 6/17/6 15/16/6

