# Created by Kenney (www.kenney.nl)

mtllib wall-broken-type-a.mtl

g wall-broken-type-a

v 0.5 0.4 -0.035 1 1 1
v 0.5 0 -0.035 1 1 1
v 0.5 0.4 0.035 1 1 1
v 0.5 0 0.035 1 1 1
v -0.5 0 0.035 1 1 1
v 0.09367818 0.2503465 0.035 1 1 1
v 0.2543467 0.3538807 0.035 1 1 1
v 0.3316319 0.4 0.035 1 1 1
v 0.1543467 0.3538807 0.035 1 1 1
v -0.4217215 0.1418637 0.035 1 1 1
v -0.5 0.1418637 0.035 1 1 1
v -0.1817855 0.2019489 0.035 1 1 1
v -0.1463218 0.2503465 0.035 1 1 1
v -0.3417855 0.2019489 0.035 1 1 1
v -0.5 0 -0.035 1 1 1
v -0.5 0.1418637 -0.035 1 1 1
v -0.4217215 0.1418637 -0.035 1 1 1
v 0.09367818 0.2503465 -0.035 1 1 1
v -0.1817855 0.2019489 -0.035 1 1 1
v -0.3417855 0.2019489 -0.035 1 1 1
v -0.1463218 0.2503465 -0.035 1 1 1
v 0.2543467 0.3538807 -0.035 1 1 1
v 0.1543467 0.3538807 -0.035 1 1 1
v 0.3316319 0.4 -0.035 1 1 1

vn 1 0 0
vn 0 0 1
vn -1 0 0
vn 0 0 -1
vn 0 1 0
vn -0.2657769 0.9640345 0
vn 0 -1 0
vn -0.4972069 0.8676321 0
vn -0.4521825 0.8919255 0
vn -0.3167334 0.9485146 0

vt 2 1.4
vt 2 1
vt 1.95 1.4
vt 1.95 1
vt 5 0.9999998
vt 4 0.9999999
vt 5 1.4
vt 4.593678 1.250346
vt 4.754346 1.353881
vt 4.831632 1.4
vt 4.654346 1.353881
vt 4.078279 1.141864
vt 4 1.141864
vt 4.318214 1.201949
vt 4.353678 1.250346
vt 4.158215 1.201949
vt 3 1
vt 3 1.141864
vt 3.05 1
vt 3.05 1.141864
vt 3 1
vt 3 1.141864
vt 2.921722 1.141864
vt 2.406322 1.250347
vt 2.681786 1.201949
vt 2.841786 1.201949
vt 2.646322 1.250347
vt 2.245653 1.353881
vt 2.345654 1.353881
vt 2.168368 1.4
vt 3 -11
vt 3 -10.95
vt 3.168368 -11
vt 3.168368 -10.95
vt 3.232654 -11
vt 3.232654 -10.95
vt -13 -10.95
vt -13 -11
vt -14 -10.95
vt -14 -11
vt 3.245653 -11
vt 3.245653 -10.95
vt 3.345653 -11
vt 3.345653 -10.95
vt 3.431368 -10.95
vt 3.431368 -11
vt 3.406322 -11
vt 3.406322 -10.95
vt 3.646322 -11
vt 3.646322 -10.95
vt 3.689179 -10.95
vt 3.689179 -11
vt 3.681786 -11
vt 3.681786 -10.95
vt 3.841785 -11
vt 3.841785 -10.95
vt 3.913214 -11
vt 3.913214 -10.95
vt 3.921721 -11
vt 3.921721 -10.95
vt 4 -11
vt 4 -10.95

usemtl wall_lines

f 3/3/1 2/2/1 1/1/1
f 2/2/1 3/3/1 4/4/1
f 3/7/2 5/6/2 4/5/2
f 5/6/2 3/7/2 6/8/2
f 6/8/2 3/7/2 7/9/2
f 7/9/2 3/7/2 8/10/2
f 9/11/2 6/8/2 7/9/2
f 5/6/2 6/8/2 10/12/2
f 11/13/2 5/6/2 10/12/2
f 10/12/2 6/8/2 12/14/2
f 13/15/2 12/14/2 6/8/2
f 14/16/2 10/12/2 12/14/2
f 5/19/3 16/18/3 15/17/3
f 16/18/3 5/19/3 11/20/3
f 16/22/4 2/2/4 15/21/4
f 2/2/4 16/22/4 17/23/4
f 2/2/4 17/23/4 18/24/4
f 2/2/4 18/24/4 1/1/4
f 18/24/4 17/23/4 19/25/4
f 19/25/4 17/23/4 20/26/4
f 18/24/4 19/25/4 21/27/4
f 1/1/4 18/24/4 22/28/4
f 22/28/4 18/24/4 23/29/4
f 1/1/4 22/28/4 24/30/4

usemtl concrete

f 24/33/6 3/32/5 1/31/5
f 3/32/5 24/33/6 8/34/6
f 22/35/6 8/34/6 24/33/6
f 8/34/6 22/35/6 7/36/6
f 5/39/7 2/38/7 4/37/7
f 2/38/7 5/39/7 15/40/7
f 23/43/8 7/42/6 22/41/6
f 7/42/6 23/43/8 9/44/8
f 23/43/8 6/45/8 9/44/8
f 6/45/8 23/43/8 18/46/8
f 21/49/9 6/48/8 18/47/8
f 6/48/8 21/49/9 13/50/9
f 21/49/9 12/51/9 13/50/9
f 12/51/9 21/49/9 19/52/9
f 20/55/10 12/54/9 19/53/9
f 12/54/9 20/55/10 14/56/10
f 17/57/10 14/56/10 20/55/10
f 14/56/10 17/57/10 10/58/10
f 16/61/5 10/60/10 17/59/10
f 10/60/10 16/61/5 11/62/5

g wall-broken-type-a




usemtl wall_lines

f 3/3/1 2/2/1 1/1/1
f 2/2/1 3/3/1 4/4/1
f 3/7/2 5/6/2 4/5/2
f 5/6/2 3/7/2 6/8/2
f 6/8/2 3/7/2 7/9/2
f 7/9/2 3/7/2 8/10/2
f 9/11/2 6/8/2 7/9/2
f 5/6/2 6/8/2 10/12/2
f 11/13/2 5/6/2 10/12/2
f 10/12/2 6/8/2 12/14/2
f 13/15/2 12/14/2 6/8/2
f 14/16/2 10/12/2 12/14/2
f 5/19/3 16/18/3 15/17/3
f 16/18/3 5/19/3 11/20/3
f 16/22/4 2/2/4 15/21/4
f 2/2/4 16/22/4 17/23/4
f 2/2/4 17/23/4 18/24/4
f 2/2/4 18/24/4 1/1/4
f 18/24/4 17/23/4 19/25/4
f 19/25/4 17/23/4 20/26/4
f 18/24/4 19/25/4 21/27/4
f 1/1/4 18/24/4 22/28/4
f 22/28/4 18/24/4 23/29/4
f 1/1/4 22/28/4 24/30/4

usemtl concrete

f 24/33/6 3/32/5 1/31/5
f 3/32/5 24/33/6 8/34/6
f 22/35/6 8/34/6 24/33/6
f 8/34/6 22/35/6 7/36/6
f 5/39/7 2/38/7 4/37/7
f 2/38/7 5/39/7 15/40/7
f 23/43/8 7/42/6 22/41/6
f 7/42/6 23/43/8 9/44/8
f 23/43/8 6/45/8 9/44/8
f 6/45/8 23/43/8 18/46/8
f 21/49/9 6/48/8 18/47/8
f 6/48/8 21/49/9 13/50/9
f 21/49/9 12/51/9 13/50/9
f 12/51/9 21/49/9 19/52/9
f 20/55/10 12/54/9 19/53/9
f 12/54/9 20/55/10 14/56/10
f 17/57/10 14/56/10 20/55/10
f 14/56/10 17/57/10 10/58/10
f 16/61/5 10/60/10 17/59/10
f 10/60/10 16/61/5 11/62/5

