# Created by Kenney (www.kenney.nl)

mtllib wall-a-detail.mtl

g wall-a-detail

v 0.3 0 0.1 1 1 1
v 0.2 0 -0.1 1 1 1
v -0.3 0 0.1 1 1 1
v -0.2 0 -0.1 1 1 1
v 0.3 1 0.1 1 1 1
v -0.3 1 0.1 1 1 1
v 0.2 1 -0.1 1 1 1
v -0.2 1 -0.1 1 1 1

vn 0 -1 0
vn 0 1 0
vn -0.8944272 0 -0.4472136
vn 0 0 -1
vn 0.8944272 0 -0.4472136
vn 0 0 1

vt 0 0
vt 4.2 -11
vt 4.8 -11
vt 4.3 -11.2
vt 4.7 -11.2
vt -1.370572 0.9999997
vt -1.370572 2
vt -1.146965 0.9999997
vt -1.146965 2
vt 2.7 1
vt 2.3 1
vt 2.7 2
vt 2.3 2
vt 2.3 1
vt 2.076393 2
vt 2.076393 1
vt -8.280432 0
vt -8.880432 0
vt -8.280432 1
vt -8.880432 1

usemtl _defaultMat

f 3/1/1 2/1/1 1/1/1
f 2/1/1 3/1/1 4/1/1

usemtl concrete

f 7/4/2 6/3/2 5/2/2
f 6/3/2 7/4/2 8/5/2

usemtl wall_lines

f 3/8/3 8/7/3 4/6/3
f 8/7/3 3/8/3 6/9/3
f 8/12/4 2/11/4 4/10/4
f 2/11/4 8/12/4 7/13/4
f 5/15/5 2/14/5 7/13/5
f 2/14/5 5/15/5 1/16/5
f 5/19/6 3/18/6 1/17/6
f 3/18/6 5/19/6 6/20/6

g wall-a-detail




usemtl _defaultMat

f 3/1/1 2/1/1 1/1/1
f 2/1/1 3/1/1 4/1/1

usemtl concrete

f 7/4/2 6/3/2 5/2/2
f 6/3/2 7/4/2 8/5/2

usemtl wall_lines

f 3/8/3 8/7/3 4/6/3
f 8/7/3 3/8/3 6/9/3
f 8/12/4 2/11/4 4/10/4
f 2/11/4 8/12/4 7/13/4
f 5/15/5 2/14/5 7/13/5
f 2/14/5 5/15/5 1/16/5
f 5/19/6 3/18/6 1/17/6
f 3/18/6 5/19/6 6/20/6

