# Created by Kenney (www.kenney.nl)

mtllib wall-type-b.mtl

g wall-type-b

v 0.5 0.5 -0.035 1 1 1
v 0.5 0 -0.035 1 1 1
v 0.5 0.5 0.035 1 1 1
v 0.5 0 0.035 1 1 1
v -0.43 0.5 -0.035 1 1 1
v -0.5 0.5 -0.035 1 1 1
v -0.43 0.3 -0.035 1 1 1
v -0.5 0 -0.035 1 1 1
v 0.43 0.3 -0.035 1 1 1
v 0.43 0.5 -0.035 1 1 1
v 0.43 0.5 0.035 1 1 1
v 0.43 0.3 0.035 1 1 1
v -0.5 0 0.035 1 1 1
v -0.43 0.3 0.035 1 1 1
v -0.5 0.5 0.035 1 1 1
v -0.43 0.5 0.035 1 1 1

vn 1 0 0
vn 0 0 -1
vn 0 0 1
vn -1 0 0
vn 0 1 0
vn 0 -1 0

vt 2 1.5
vt 2 1
vt 1.95 1.5
vt 1.95 1
vt 2.93 1.5
vt 3 1.5
vt 2.93 1.3
vt 3 1
vt 2.07 1.3
vt 2.07 1.5
vt 4.93 1.5
vt 5 1.5
vt 4.93 1.3
vt 5 0.9999998
vt 4 0.9999999
vt 4.07 1.3
vt 4 1.5
vt 4.07 1.5
vt 3 1
vt 3 1.5
vt 3.05 1
vt 3.05 1.5
vt 3 -11
vt 3 -10.95
vt 3.07 -11
vt 3.07 -10.95
vt -13 -10.95
vt -13 -11
vt -14 -10.95
vt -14 -11
vt 3.93 -11
vt 3.93 -10.95
vt 4 -11
vt 4 -10.95
vt -2.586 -8.86112
vt -2.586 -9.003978
vt -2.656 -8.86112
vt -2.656 -9.003978
vt -7.574863 -9.003978
vt -7.574863 -8.86112
vt -7.504863 -9.003978
vt -7.504863 -8.86112

usemtl wall_lines

f 3/3/1 2/2/1 1/1/1
f 2/2/1 3/3/1 4/4/1
f 7/7/2 6/6/2 5/5/2
f 7/7/2 8/8/2 6/6/2
f 8/8/2 7/7/2 2/2/2
f 9/9/2 2/2/2 7/7/2
f 2/2/2 9/9/2 1/1/2
f 1/1/2 9/9/2 10/10/2
f 12/13/3 3/12/3 11/11/3
f 12/13/3 4/14/3 3/12/3
f 4/14/3 12/13/3 13/15/3
f 14/16/3 13/15/3 12/13/3
f 13/15/3 14/16/3 15/17/3
f 15/17/3 14/16/3 16/18/3
f 13/21/4 6/20/4 8/19/4
f 6/20/4 13/21/4 15/22/4

usemtl concrete

f 10/25/5 3/24/5 1/23/5
f 3/24/5 10/25/5 11/26/5
f 13/29/6 2/28/6 4/27/6
f 2/28/6 13/29/6 8/30/6
f 6/33/5 16/32/5 5/31/5
f 16/32/5 6/33/5 15/34/5
f 7/31/5 12/26/5 9/25/5
f 12/26/5 7/31/5 14/32/5
f 16/37/1 7/36/1 5/35/1
f 7/36/1 16/37/1 14/38/1
f 12/41/4 10/40/4 9/39/4
f 10/40/4 12/41/4 11/42/4

g wall-type-b




usemtl wall_lines

f 3/3/1 2/2/1 1/1/1
f 2/2/1 3/3/1 4/4/1
f 7/7/2 6/6/2 5/5/2
f 7/7/2 8/8/2 6/6/2
f 8/8/2 7/7/2 2/2/2
f 9/9/2 2/2/2 7/7/2
f 2/2/2 9/9/2 1/1/2
f 1/1/2 9/9/2 10/10/2
f 12/13/3 3/12/3 11/11/3
f 12/13/3 4/14/3 3/12/3
f 4/14/3 12/13/3 13/15/3
f 14/16/3 13/15/3 12/13/3
f 13/15/3 14/16/3 15/17/3
f 15/17/3 14/16/3 16/18/3
f 13/21/4 6/20/4 8/19/4
f 6/20/4 13/21/4 15/22/4

usemtl concrete

f 10/25/5 3/24/5 1/23/5
f 3/24/5 10/25/5 11/26/5
f 13/29/6 2/28/6 4/27/6
f 2/28/6 13/29/6 8/30/6
f 6/33/5 16/32/5 5/31/5
f 16/32/5 6/33/5 15/34/5
f 7/31/5 12/26/5 9/25/5
f 12/26/5 7/31/5 14/32/5
f 16/37/1 7/36/1 5/35/1
f 7/36/1 16/37/1 14/38/1
f 12/41/4 10/40/4 9/39/4
f 10/40/4 12/41/4 11/42/4

