# Created by Kenney (www.kenney.nl)

mtllib wall-steps-type-b.mtl

g wall-steps-type-b

v 0.5 0.5 -0.035 1 1 1
v 0.5 0 -0.035 1 1 1
v 0.5 0.5 0.035 1 1 1
v 0.5 0 0.035 1 1 1
v 0.43 0.5 0.035 1 1 1
v 0.43 0.4 0.035 1 1 1
v -0.5 0 0.035 1 1 1
v 0.04428253 0.25 0.035 1 1 1
v 0.1442825 0.33 0.035 1 1 1
v 0.1442825 0.4 0.035 1 1 1
v 0.04428253 0.33 0.035 1 1 1
v -0.2757175 0.15 0.035 1 1 1
v -0.2757175 0.25 0.035 1 1 1
v -0.4257175 0.15 0.035 1 1 1
v -0.5 0.25 0.035 1 1 1
v -0.4257175 0.25 0.035 1 1 1
v -0.5 0 -0.035 1 1 1
v -0.5 0.25 -0.035 1 1 1
v -0.4257175 0.25 -0.035 1 1 1
v -0.4257175 0.15 -0.035 1 1 1
v -0.2757175 0.15 -0.035 1 1 1
v 0.04428253 0.25 -0.035 1 1 1
v -0.2757175 0.25 -0.035 1 1 1
v 0.43 0.4 -0.035 1 1 1
v 0.43 0.5 -0.035 1 1 1
v 0.1442825 0.33 -0.035 1 1 1
v 0.04428253 0.33 -0.035 1 1 1
v 0.1442825 0.4 -0.035 1 1 1

vn 1 0 0
vn 0 0 1
vn -1 0 0
vn 0 0 -1
vn 0 1 0
vn 0 -1 0

vt 2 1.5
vt 2 1
vt 1.95 1.5
vt 1.95 1
vt 4.93 1.5
vt 5 1.5
vt 4.93 1.4
vt 5 0.9999998
vt 4 0.9999999
vt 4.544282 1.25
vt 4.644282 1.33
vt 4.644282 1.4
vt 4.544282 1.33
vt 4.224282 1.15
vt 4.224282 1.25
vt 4.074283 1.15
vt 4 1.25
vt 4.074283 1.25
vt 3 1
vt 3 1.25
vt 3.05 1
vt 3.05 1.25
vt 2.925718 1.25
vt 3 1.25
vt 2.925718 1.15
vt 3 1
vt 2.775718 1.15
vt 2.455718 1.25
vt 2.775718 1.25
vt 2.07 1.4
vt 2.07 1.5
vt 2.355718 1.33
vt 2.455718 1.33
vt 2.355718 1.4
vt 3.07 -11
vt 3.07 -10.95
vt 3.355717 -11
vt 3.355717 -10.95
vt -13 -10.95
vt -13 -11
vt -14 -10.95
vt -14 -11
vt 3.405717 -11
vt 3.405717 -10.95
vt 3.455718 -11
vt 3.455718 -10.95
vt 3.51286 -11
vt 3.51286 -10.95
vt 3.775717 -11
vt 3.775717 -10.95
vt 3.847146 -11
vt 3.847146 -10.95
vt 3.925717 -11
vt 3.925717 -10.95
vt 3.854289 -7.436526
vt 3.925717 -7.436526
vt 3.854289 -7.486526
vt 3.925717 -7.486526
vt 4 -11
vt 4 -10.95
vt 3 -11
vt 3 -10.95
vt -9.074863 -8.932549
vt -9.074863 -8.86112
vt -9.004864 -8.932549
vt -9.004864 -8.86112

usemtl wall_lines

f 3/3/1 2/2/1 1/1/1
f 2/2/1 3/3/1 4/4/1
f 6/7/2 3/6/2 5/5/2
f 6/7/2 4/8/2 3/6/2
f 4/8/2 6/7/2 7/9/2
f 7/9/2 6/7/2 8/10/2
f 8/10/2 6/7/2 9/11/2
f 10/12/2 9/11/2 6/7/2
f 11/13/2 8/10/2 9/11/2
f 7/9/2 8/10/2 12/14/2
f 13/15/2 12/14/2 8/10/2
f 14/16/2 7/9/2 12/14/2
f 7/9/2 14/16/2 15/17/2
f 15/17/2 14/16/2 16/18/2
f 7/21/3 18/20/3 17/19/3
f 18/20/3 7/21/3 15/22/3
f 20/25/4 18/24/4 19/23/4
f 20/25/4 17/26/4 18/24/4
f 17/26/4 20/25/4 2/2/4
f 21/27/4 2/2/4 20/25/4
f 22/28/4 2/2/4 21/27/4
f 22/28/4 21/27/4 23/29/4
f 24/30/4 2/2/4 22/28/4
f 2/2/4 24/30/4 1/1/4
f 1/1/4 24/30/4 25/31/4
f 24/30/4 22/28/4 26/32/4
f 26/32/4 22/28/4 27/33/4
f 24/30/4 26/32/4 28/34/4

usemtl concrete

f 28/37/5 6/36/5 24/35/5
f 6/36/5 28/37/5 10/38/5
f 7/41/6 2/40/6 4/39/6
f 2/40/6 7/41/6 17/42/6
f 9/44/3 28/37/3 26/43/3
f 28/37/3 9/44/3 10/38/3
f 27/45/5 9/38/5 26/37/5
f 9/38/5 27/45/5 11/46/5
f 8/48/3 27/45/3 22/47/3
f 27/45/3 8/48/3 11/46/3
f 23/49/5 8/46/5 22/45/5
f 8/46/5 23/49/5 13/50/5
f 12/52/3 23/49/3 21/51/3
f 23/49/3 12/52/3 13/50/3
f 20/53/5 12/50/5 21/49/5
f 12/50/5 20/53/5 14/54/5
f 16/57/1 20/56/1 19/55/1
f 20/56/1 16/57/1 14/58/1
f 18/59/5 16/54/5 19/53/5
f 16/54/5 18/59/5 15/60/5
f 25/35/5 3/62/5 1/61/5
f 3/62/5 25/35/5 5/36/5
f 6/65/3 25/64/3 24/63/3
f 25/64/3 6/65/3 5/66/3

g wall-steps-type-b




usemtl wall_lines

f 3/3/1 2/2/1 1/1/1
f 2/2/1 3/3/1 4/4/1
f 6/7/2 3/6/2 5/5/2
f 6/7/2 4/8/2 3/6/2
f 4/8/2 6/7/2 7/9/2
f 7/9/2 6/7/2 8/10/2
f 8/10/2 6/7/2 9/11/2
f 10/12/2 9/11/2 6/7/2
f 11/13/2 8/10/2 9/11/2
f 7/9/2 8/10/2 12/14/2
f 13/15/2 12/14/2 8/10/2
f 14/16/2 7/9/2 12/14/2
f 7/9/2 14/16/2 15/17/2
f 15/17/2 14/16/2 16/18/2
f 7/21/3 18/20/3 17/19/3
f 18/20/3 7/21/3 15/22/3
f 20/25/4 18/24/4 19/23/4
f 20/25/4 17/26/4 18/24/4
f 17/26/4 20/25/4 2/2/4
f 21/27/4 2/2/4 20/25/4
f 22/28/4 2/2/4 21/27/4
f 22/28/4 21/27/4 23/29/4
f 24/30/4 2/2/4 22/28/4
f 2/2/4 24/30/4 1/1/4
f 1/1/4 24/30/4 25/31/4
f 24/30/4 22/28/4 26/32/4
f 26/32/4 22/28/4 27/33/4
f 24/30/4 26/32/4 28/34/4

usemtl concrete

f 28/37/5 6/36/5 24/35/5
f 6/36/5 28/37/5 10/38/5
f 7/41/6 2/40/6 4/39/6
f 2/40/6 7/41/6 17/42/6
f 9/44/3 28/37/3 26/43/3
f 28/37/3 9/44/3 10/38/3
f 27/45/5 9/38/5 26/37/5
f 9/38/5 27/45/5 11/46/5
f 8/48/3 27/45/3 22/47/3
f 27/45/3 8/48/3 11/46/3
f 23/49/5 8/46/5 22/45/5
f 8/46/5 23/49/5 13/50/5
f 12/52/3 23/49/3 21/51/3
f 23/49/3 12/52/3 13/50/3
f 20/53/5 12/50/5 21/49/5
f 12/50/5 20/53/5 14/54/5
f 16/57/1 20/56/1 19/55/1
f 20/56/1 16/57/1 14/58/1
f 18/59/5 16/54/5 19/53/5
f 16/54/5 18/59/5 15/60/5
f 25/35/5 3/62/5 1/61/5
f 3/62/5 25/35/5 5/36/5
f 6/65/3 25/64/3 24/63/3
f 25/64/3 6/65/3 5/66/3

