# Created by Kenney (www.kenney.nl)

mtllib wall-fence.mtl

g wall-fence

v 0.5 0.5 -0.035 1 1 1
v 0.5 0 -0.035 1 1 1
v 0.5 0.5 0.035 1 1 1
v 0.5 0 0.035 1 1 1
v -0.5 0 -0.035 1 1 1
v -0.43 3.14972E-31 -0.035 1 1 1
v -0.5 0.5 -0.035 1 1 1
v -0.43 0.5 -0.035 1 1 1
v 0.43 1.57486E-31 0.035 1 1 1
v 0.43 0.5 0.035 1 1 1
v -0.5 0 0.035 1 1 1
v -0.5 0.5 0.035 1 1 1
v 0.43 1.57486E-31 -0.035 1 1 1
v 0.43 0.5 -0.035 1 1 1
v 0.43 3.14972E-31 0 1 1 1
v -0.43 0.5 0.035 1 1 1
v -0.43 3.14972E-31 0 1 1 1
v -0.43 3.14972E-31 0.035 1 1 1
v -0.43 0.45 0 1 1 1
v 0.43 0.45 0 1 1 1

vn 1 0 0
vn 0 0 -1
vn 0 0 1
vn -1 0 0
vn 0 1 0
vn 0 -1 0

vt 2 1.5
vt 2 1
vt 1.95 1.5
vt 1.95 1
vt 3 1
vt 2.93 1
vt 3 1.5
vt 2.93 1.5
vt 5 0.9999998
vt 4.93 0.9999998
vt 5 1.5
vt 4.93 1.5
vt 3 1
vt 3 1.5
vt 3.05 1
vt 3.05 1.5
vt 3.025 1
vt 2.07 1
vt 2.07 1.5
vt 1.975 1
vt 4 0.9999999
vt 4 1.5
vt 4.07 0.9999999
vt 4.07 1.5
vt 3 -11
vt 3 -10.95
vt 3.07 -11
vt 3.07 -10.95
vt -13 -10.95
vt -13 -11
vt -13.07 -10.95
vt -13.07 -10.975
vt -13.07 -11
vt 3.93 -11
vt 3.93 -10.95
vt 4 -11
vt 4 -10.95
vt -13.93 -10.975
vt -13.93 -11
vt -13.93 -10.95
vt -14 -10.95
vt -14 -11
vt 14 0.55
vt 13 0.55
vt 14 1
vt 13 1

usemtl wall_lines

f 3/3/1 2/2/1 1/1/1
f 2/2/1 3/3/1 4/4/1
f 7/7/2 6/6/2 5/5/2
f 6/6/2 7/7/2 8/8/2
f 3/11/3 9/10/3 4/9/3
f 9/10/3 3/11/3 10/12/3
f 11/15/4 7/14/4 5/13/4
f 7/14/4 11/15/4 12/16/4
f 15/17/4 14/14/4 13/13/4
f 14/14/4 15/17/4 10/16/4
f 10/16/4 15/17/4 9/15/4
f 13/18/2 1/1/2 2/2/2
f 1/1/2 13/18/2 14/19/2
f 16/3/1 6/2/1 8/1/1
f 6/2/1 16/3/1 17/20/1
f 17/20/1 16/3/1 18/4/1
f 18/23/3 12/22/3 11/21/3
f 12/22/3 18/23/3 16/24/3

usemtl concrete

f 14/27/5 3/26/5 1/25/5
f 3/26/5 14/27/5 10/28/5
f 9/31/6 2/30/6 4/29/6
f 2/30/6 9/31/6 15/32/6
f 13/33/6 2/30/6 15/32/6
f 7/36/5 16/35/5 8/34/5
f 16/35/5 7/36/5 12/37/5
f 18/40/6 6/39/6 17/38/6
f 6/39/6 18/40/6 11/41/6
f 6/39/6 11/41/6 5/42/6

usemtl bars

f 19/45/2 15/44/2 17/43/2
f 15/44/2 19/45/2 20/46/2
f 17/43/3 15/44/3 19/45/3
f 20/46/3 19/45/3 15/44/3

g wall-fence




usemtl wall_lines

f 3/3/1 2/2/1 1/1/1
f 2/2/1 3/3/1 4/4/1
f 7/7/2 6/6/2 5/5/2
f 6/6/2 7/7/2 8/8/2
f 3/11/3 9/10/3 4/9/3
f 9/10/3 3/11/3 10/12/3
f 11/15/4 7/14/4 5/13/4
f 7/14/4 11/15/4 12/16/4
f 15/17/4 14/14/4 13/13/4
f 14/14/4 15/17/4 10/16/4
f 10/16/4 15/17/4 9/15/4
f 13/18/2 1/1/2 2/2/2
f 1/1/2 13/18/2 14/19/2
f 16/3/1 6/2/1 8/1/1
f 6/2/1 16/3/1 17/20/1
f 17/20/1 16/3/1 18/4/1
f 18/23/3 12/22/3 11/21/3
f 12/22/3 18/23/3 16/24/3

usemtl concrete

f 14/27/5 3/26/5 1/25/5
f 3/26/5 14/27/5 10/28/5
f 9/31/6 2/30/6 4/29/6
f 2/30/6 9/31/6 15/32/6
f 13/33/6 2/30/6 15/32/6
f 7/36/5 16/35/5 8/34/5
f 16/35/5 7/36/5 12/37/5
f 18/40/6 6/39/6 17/38/6
f 6/39/6 18/40/6 11/41/6
f 6/39/6 11/41/6 5/42/6

usemtl bars

f 19/45/2 15/44/2 17/43/2
f 15/44/2 19/45/2 20/46/2
f 17/43/3 15/44/3 19/45/3
f 20/46/3 19/45/3 15/44/3

