# Created by Kenney (www.kenney.nl)

mtllib wall-b-roof-detailed.mtl

g wall-b-roof-detailed

v -0.5 1.804779E-16 0.5 1 1 1
v -0.5 0 -0.4 1 1 1
v -0.5 0 0.4 1 1 1
v -0.5 1.804779E-16 -0.5 1 1 1
v 0.5 1.804779E-16 -0.5 1 1 1
v 0.5 0 -0.4 1 1 1
v 0.5 0 0.4 1 1 1
v 0.5 1.804779E-16 0.5 1 1 1
v 0.5 0.5 -1.443823E-15 1 1 1
v -0.5 0.5 0 1 1 1
v -0.5685822 1.804779E-16 0.5 1 1 1
v -0.5685822 0.5 0 1 1 1
v -0.5 0.4 0 1 1 1
v 0.5 0.4 -2.887646E-15 1 1 1
v 0.5685822 0.5 0 1 1 1
v 0.5685822 1.804779E-16 0.5 1 1 1
v -0.5685822 1.804779E-16 -0.5 1 1 1
v 0.5685822 1.804779E-16 -0.5 1 1 1

vn 0 -1 0
vn 0 0.7071068 0.7071068
vn -1 0 0
vn 1 0 0
vn 0 -0.7071068 -0.7071068
vn 0 -0.7071068 0.7071068
vn 0 0.7071068 -0.7071068

vt -14 -11
vt -13.1 -11
vt -13.9 -11
vt -13 -11
vt -13 -10
vt -13.1 -10
vt -13.9 -10
vt -14 -10
vt -2 -4
vt -3 -4
vt -2 -3.292893
vt -3 -3.292893
vt -3.068582 -4
vt -3.068582 -3.292893
vt -4 -5
vt -4 -4
vt -3.9 -4.9
vt -3.9 -4.1
vt -2.931418 -3.292893
vt -2.931418 -4
vt 9.068583 4.707107
vt 9.068583 4
vt 9 4.707107
vt 9 4
vt 8 4
vt 8 4.707107
vt 7.931418 4
vt 7.931418 4.707107
vt 19.1 1
vt 19.5 1.4
vt 19.9 1
vt 5.5 1.4
vt 5.9 1
vt 5.1 1

usemtl concrete

f 3/3/1 2/2/1 1/1/1
f 4/4/1 1/1/1 2/2/1
f 5/5/1 1/1/1 4/4/1
f 6/6/1 1/1/1 5/5/1
f 7/7/1 1/1/1 6/6/1
f 1/1/1 7/7/1 8/8/1

usemtl roof_plates

f 9/11/2 1/10/2 8/9/2
f 1/10/2 9/11/2 10/12/2
f 10/12/2 11/13/2 1/10/2
f 11/13/2 10/12/2 12/14/2
f 2/17/3 10/16/3 4/15/3
f 10/16/3 2/17/3 13/18/3
f 3/17/3 10/16/3 13/18/3
f 10/16/3 3/17/3 1/15/3
f 9/16/4 7/17/4 14/18/4
f 7/17/4 9/16/4 8/15/4
f 9/16/4 6/17/4 5/15/4
f 6/17/4 9/16/4 14/18/4
f 9/12/2 16/20/2 15/19/2
f 16/20/2 9/12/2 8/10/2
f 15/19/5 16/20/5 9/12/5
f 8/10/5 9/12/5 16/20/5
f 1/20/5 11/10/5 10/19/5
f 12/12/5 10/19/5 11/10/5
f 4/20/6 10/19/6 17/10/6
f 12/12/6 17/10/6 10/19/6
f 10/23/7 17/22/7 12/21/7
f 17/22/7 10/23/7 4/24/7
f 10/23/7 5/25/7 4/24/7
f 5/25/7 10/23/7 9/26/7
f 9/26/7 18/27/7 5/25/7
f 18/27/7 9/26/7 15/28/7
f 15/19/6 9/12/6 18/20/6
f 5/10/6 18/20/6 9/12/6

usemtl wall_metal

f 3/31/3 13/30/3 2/29/3
f 7/34/4 6/33/4 14/32/4

g wall-b-roof-detailed




usemtl concrete

f 3/3/1 2/2/1 1/1/1
f 4/4/1 1/1/1 2/2/1
f 5/5/1 1/1/1 4/4/1
f 6/6/1 1/1/1 5/5/1
f 7/7/1 1/1/1 6/6/1
f 1/1/1 7/7/1 8/8/1

usemtl roof_plates

f 9/11/2 1/10/2 8/9/2
f 1/10/2 9/11/2 10/12/2
f 10/12/2 11/13/2 1/10/2
f 11/13/2 10/12/2 12/14/2
f 2/17/3 10/16/3 4/15/3
f 10/16/3 2/17/3 13/18/3
f 3/17/3 10/16/3 13/18/3
f 10/16/3 3/17/3 1/15/3
f 9/16/4 7/17/4 14/18/4
f 7/17/4 9/16/4 8/15/4
f 9/16/4 6/17/4 5/15/4
f 6/17/4 9/16/4 14/18/4
f 9/12/2 16/20/2 15/19/2
f 16/20/2 9/12/2 8/10/2
f 15/19/5 16/20/5 9/12/5
f 8/10/5 9/12/5 16/20/5
f 1/20/5 11/10/5 10/19/5
f 12/12/5 10/19/5 11/10/5
f 4/20/6 10/19/6 17/10/6
f 12/12/6 17/10/6 10/19/6
f 10/23/7 17/22/7 12/21/7
f 17/22/7 10/23/7 4/24/7
f 10/23/7 5/25/7 4/24/7
f 5/25/7 10/23/7 9/26/7
f 9/26/7 18/27/7 5/25/7
f 18/27/7 9/26/7 15/28/7
f 15/19/6 9/12/6 18/20/6
f 5/10/6 18/20/6 9/12/6

usemtl wall_metal

f 3/31/3 13/30/3 2/29/3
f 7/34/4 6/33/4 14/32/4

