# Created by Kenney (www.kenney.nl)

mtllib window-wide-type-c.mtl

g window-wide-type-c

v -0.2465725 0.05232442 1.082867E-15 1 1 1
v 0.2465725 0.05232442 1.082867E-15 1 1 1
v -0.2465725 0.5454695 1.082867E-15 1 1 1
v 0.2465725 0.5454695 1.082867E-15 1 1 1
v -0.2465725 0.5454695 -0.025 1 1 1
v -0.2465725 0.05232442 -0.025 1 1 1
v 0.2465725 0.05232442 -0.025 1 1 1
v 0.2465725 0.5454695 -0.025 1 1 1
v 0.2988969 0.5977939 -0.025 1 1 1
v 0.2988969 0 -0.025 1 1 1
v 0.2988969 0.5977939 0.025 1 1 1
v 0.2988969 0 0.025 1 1 1
v -0.2988969 0 0.025 1 1 1
v -0.2988969 0 -0.025 1 1 1
v -0.2988969 0.5977939 -0.025 1 1 1
v -0.2988969 0.5977939 0.025 1 1 1

vn 0 0 -1
vn 1 0 0
vn -1 0 0
vn 0 1 0
vn 0 -1 0

vt 13.50478 2.006551
vt 13.01163 2.006551
vt 13.50478 2.499696
vt 13.01163 2.499696
vt 8.108132 2.746572
vt 8.108132 2.253428
vt 8.058132 2.746572
vt 8.058132 2.253428
vt 2.150591 2.253428
vt 2.150591 2.746572
vt 2.200591 2.253428
vt 2.200591 2.746572
vt 13.25343 -0.7776672
vt 13.25343 -0.7276673
vt 13.74657 -0.7776672
vt 13.74657 -0.7276673
vt -2.994704 -0.7276673
vt -2.994704 -0.7776672
vt -3.487849 -0.7276673
vt -3.487849 -0.7776672
vt 8.108132 2.798897
vt 8.108132 2.201103
vt 8.008132 2.798897
vt 8.008132 2.201103
vt -2.94238 -0.6776673
vt -2.94238 -0.7776672
vt -3.540174 -0.6776673
vt -3.540174 -0.7776672
vt 13.2011 -0.7776672
vt 13.2011 -0.6776673
vt 13.7989 -0.7776672
vt 13.7989 -0.6776673
vt 2.150591 2.201103
vt 2.150591 2.798897
vt 2.250591 2.201103
vt 2.250591 2.798897
vt 13.74657 2.746572
vt 13.7989 2.798897
vt 13.74657 2.253428
vt 13.25343 2.746572
vt 13.7989 2.201103
vt 13.2011 2.798897
vt 13.2011 2.201103
vt 13.25343 2.253428

usemtl windows

f 3/3/1 2/2/1 1/1/1
f 2/2/1 3/3/1 4/4/1

usemtl metal

f 3/7/2 6/6/2 5/5/2
f 6/6/2 3/7/2 1/8/2
f 2/11/3 8/10/3 7/9/3
f 8/10/3 2/11/3 4/12/3
f 6/15/4 2/14/4 7/13/4
f 2/14/4 6/15/4 1/16/4
f 3/19/5 8/18/5 4/17/5
f 8/18/5 3/19/5 5/20/5
f 11/23/2 10/22/2 9/21/2
f 10/22/2 11/23/2 12/24/2
f 13/27/5 10/26/5 12/25/5
f 10/26/5 13/27/5 14/28/5
f 15/31/4 11/30/4 9/29/4
f 11/30/4 15/31/4 16/32/4
f 13/35/3 15/34/3 14/33/3
f 15/34/3 13/35/3 16/36/3
f 6/39/1 15/38/1 5/37/1
f 5/37/1 15/38/1 8/40/1
f 6/39/1 14/41/1 15/38/1
f 9/42/1 8/40/1 15/38/1
f 14/41/1 6/39/1 10/43/1
f 9/42/1 7/44/1 8/40/1
f 10/43/1 7/44/1 9/42/1
f 7/44/1 10/43/1 6/39/1

g window-wide-type-c




usemtl windows

f 3/3/1 2/2/1 1/1/1
f 2/2/1 3/3/1 4/4/1

usemtl metal

f 3/7/2 6/6/2 5/5/2
f 6/6/2 3/7/2 1/8/2
f 2/11/3 8/10/3 7/9/3
f 8/10/3 2/11/3 4/12/3
f 6/15/4 2/14/4 7/13/4
f 2/14/4 6/15/4 1/16/4
f 3/19/5 8/18/5 4/17/5
f 8/18/5 3/19/5 5/20/5
f 11/23/2 10/22/2 9/21/2
f 10/22/2 11/23/2 12/24/2
f 13/27/5 10/26/5 12/25/5
f 10/26/5 13/27/5 14/28/5
f 15/31/4 11/30/4 9/29/4
f 11/30/4 15/31/4 16/32/4
f 13/35/3 15/34/3 14/33/3
f 15/34/3 13/35/3 16/36/3
f 6/39/1 15/38/1 5/37/1
f 5/37/1 15/38/1 8/40/1
f 6/39/1 14/41/1 15/38/1
f 9/42/1 8/40/1 15/38/1
f 14/41/1 6/39/1 10/43/1
f 9/42/1 7/44/1 8/40/1
f 10/43/1 7/44/1 9/42/1
f 7/44/1 10/43/1 6/39/1

