# Created by Kenney (www.kenney.nl)

mtllib window-wide-type-a.mtl

g window-wide-type-a

v -0.2465725 0.05232442 0 1 1 1
v 0.2465725 0.05232442 0 1 1 1
v -0.2465725 0.5454695 0 1 1 1
v 0.2465725 0.5454695 0 1 1 1
v -0.2465725 0.5454695 -0.025 1 1 1
v -0.2465725 0.3250591 -0.025 1 1 1
v -0.2465725 0.2727347 -0.025 1 1 1
v -0.2465725 0.05232442 -0.025 1 1 1
v 0.2465725 0.05232442 -0.025 1 1 1
v 0.2465725 0.2727347 -0.025 1 1 1
v 0.2465725 0.3250591 -0.025 1 1 1
v 0.2465725 0.5454695 -0.025 1 1 1
v 0.2988969 0.5977939 -0.025 1 1 1
v 0.2988969 0 -0.025 1 1 1
v 0.2988969 0.5977939 0.025 1 1 1
v 0.2988969 0 0.025 1 1 1
v -0.2988969 0 0.025 1 1 1
v -0.2988969 0 -0.025 1 1 1
v -0.2988969 0.5977939 -0.025 1 1 1
v -0.2988969 0.5977939 0.025 1 1 1

vn 0 0 -1
vn 1 0 0
vn -1 0 0
vn 0 1 0
vn 0 -1 0

vt 14.0082 2.505715
vt 13.51506 2.505715
vt 14.0082 2.99886
vt 13.51506 2.99886
vt 8.108132 2.746572
vt 8.108132 2.526162
vt 8.058132 2.746572
vt 8.108132 2.473838
vt 8.108132 2.253428
vt 8.058132 2.253428
vt 2.150591 2.253428
vt 2.150591 2.473838
vt 2.200591 2.253428
vt 2.150591 2.526162
vt 2.150591 2.746572
vt 2.200591 2.746572
vt 13.25343 -0.7776672
vt 13.25343 -0.7276673
vt 13.74657 -0.7776672
vt 13.74657 -0.7276673
vt -2.994704 -0.7276673
vt -2.994704 -0.7776672
vt -3.487849 -0.7276673
vt -3.487849 -0.7776672
vt 8.108132 2.798897
vt 8.108132 2.201103
vt 8.008132 2.798897
vt 8.008132 2.201103
vt -2.94238 -0.6776673
vt -2.94238 -0.7776672
vt -3.540174 -0.6776673
vt -3.540174 -0.7776672
vt 13.2011 -0.7776672
vt 13.2011 -0.6776673
vt 13.7989 -0.7776672
vt 13.7989 -0.6776673
vt 2.150591 2.201103
vt 2.150591 2.798897
vt 2.250591 2.201103
vt 2.250591 2.798897
vt 13.74657 2.746572
vt 13.7989 2.798897
vt 13.74657 2.526162
vt 13.25343 2.746572
vt 13.2011 2.798897
vt 13.25343 2.526162
vt 13.25343 2.473838
vt 13.74657 2.473838
vt 13.25343 2.253428
vt 13.2011 2.201103
vt 13.74657 2.253428
vt 13.7989 2.201103

usemtl windows

f 3/3/1 2/2/1 1/1/1
f 2/2/1 3/3/1 4/4/1

usemtl metal

f 3/7/2 6/6/2 5/5/2
f 6/6/2 3/7/2 7/8/2
f 7/8/2 3/7/2 8/9/2
f 8/9/2 3/7/2 1/10/2
f 2/13/3 10/12/3 9/11/3
f 10/12/3 2/13/3 11/14/3
f 11/14/3 2/13/3 12/15/3
f 12/15/3 2/13/3 4/16/3
f 8/19/4 2/18/4 9/17/4
f 2/18/4 8/19/4 1/20/4
f 3/23/5 12/22/5 4/21/5
f 12/22/5 3/23/5 5/24/5
f 15/27/2 14/26/2 13/25/2
f 14/26/2 15/27/2 16/28/2
f 17/31/5 14/30/5 16/29/5
f 14/30/5 17/31/5 18/32/5
f 19/35/4 15/34/4 13/33/4
f 15/34/4 19/35/4 20/36/4
f 17/39/3 19/38/3 18/37/3
f 19/38/3 17/39/3 20/40/3
f 6/43/1 19/42/1 5/41/1
f 5/41/1 19/42/1 12/44/1
f 13/45/1 12/44/1 19/42/1
f 13/45/1 11/46/1 12/44/1
f 10/47/1 6/43/1 11/46/1
f 13/45/1 10/47/1 11/46/1
f 6/43/1 10/47/1 7/48/1
f 7/48/1 19/42/1 6/43/1
f 13/45/1 9/49/1 10/47/1
f 14/50/1 9/49/1 13/45/1
f 8/51/1 19/42/1 7/48/1
f 9/49/1 14/50/1 8/51/1
f 8/51/1 18/52/1 19/42/1
f 18/52/1 8/51/1 14/50/1

g window-wide-type-a




usemtl windows

f 3/3/1 2/2/1 1/1/1
f 2/2/1 3/3/1 4/4/1

usemtl metal

f 3/7/2 6/6/2 5/5/2
f 6/6/2 3/7/2 7/8/2
f 7/8/2 3/7/2 8/9/2
f 8/9/2 3/7/2 1/10/2
f 2/13/3 10/12/3 9/11/3
f 10/12/3 2/13/3 11/14/3
f 11/14/3 2/13/3 12/15/3
f 12/15/3 2/13/3 4/16/3
f 8/19/4 2/18/4 9/17/4
f 2/18/4 8/19/4 1/20/4
f 3/23/5 12/22/5 4/21/5
f 12/22/5 3/23/5 5/24/5
f 15/27/2 14/26/2 13/25/2
f 14/26/2 15/27/2 16/28/2
f 17/31/5 14/30/5 16/29/5
f 14/30/5 17/31/5 18/32/5
f 19/35/4 15/34/4 13/33/4
f 15/34/4 19/35/4 20/36/4
f 17/39/3 19/38/3 18/37/3
f 19/38/3 17/39/3 20/40/3
f 6/43/1 19/42/1 5/41/1
f 5/41/1 19/42/1 12/44/1
f 13/45/1 12/44/1 19/42/1
f 13/45/1 11/46/1 12/44/1
f 10/47/1 6/43/1 11/46/1
f 13/45/1 10/47/1 11/46/1
f 6/43/1 10/47/1 7/48/1
f 7/48/1 19/42/1 6/43/1
f 13/45/1 9/49/1 10/47/1
f 14/50/1 9/49/1 13/45/1
f 8/51/1 19/42/1 7/48/1
f 9/49/1 14/50/1 8/51/1
f 8/51/1 18/52/1 19/42/1
f 18/52/1 8/51/1 14/50/1

